<svg xmlns="http://www.w3.org/2000/svg" width="460" height="312" viewBox="0 0 460 312" role="img">
  <defs>
    <marker id="arrow" markerWidth="10" markerHeight="10" refX="8" refY="3" orient="auto" markerUnits="strokeWidth">
      <path d="M0,0 L0,6 L9,3 z" fill="#1f2937"/>
    </marker>
  </defs>
  <rect width="100%" height="100%" fill="#fffdf7"/>
  <rect x="40" y="40" width="380" height="232" rx="8" fill="#ffffff" stroke="#1f2937" stroke-width="2"/><rect x="40" y="40" width="380" height="42" rx="8" fill="#dbeafe" stroke="#1f2937" stroke-width="2"/><text x="52" y="66" font-family="Virgil, Segoe Print, Comic Sans MS, sans-serif" font-size="15" fill="#111827">Status</text><line x1="140" y1="40" x2="140" y2="272" stroke="#1f2937" stroke-width="2"/><text x="152" y="66" font-family="Virgil, Segoe Print, Comic Sans MS, sans-serif" font-size="15" fill="#111827">Meaning</text><line x1="40" y1="82" x2="420" y2="82" stroke="#1f2937" stroke-width="2"/><rect x="40" y="82" width="380" height="38" fill="#ffffff" opacity="0.9"/><text x="52" y="104" font-family="Virgil, Segoe Print, Comic Sans MS, sans-serif" font-size="14" fill="#111827">400</text><text x="152" y="104" font-family="Virgil, Segoe Print, Comic Sans MS, sans-serif" font-size="14" fill="#111827">Invalid request, validation error, missing customer email, invalid transition, or unknown product.</text><line x1="40" y1="120" x2="420" y2="120" stroke="#1f2937" stroke-width="1.5"/><rect x="40" y="120" width="380" height="38" fill="#f9fafb" opacity="0.9"/><text x="52" y="142" font-family="Virgil, Segoe Print, Comic Sans MS, sans-serif" font-size="14" fill="#111827">401</text><text x="152" y="142" font-family="Virgil, Segoe Print, Comic Sans MS, sans-serif" font-size="14" fill="#111827">Missing or invalid email-password login result or missing or invalid JWT.</text><line x1="40" y1="158" x2="420" y2="158" stroke="#1f2937" stroke-width="1.5"/><rect x="40" y="158" width="380" height="38" fill="#ffffff" opacity="0.9"/><text x="52" y="180" font-family="Virgil, Segoe Print, Comic Sans MS, sans-serif" font-size="14" fill="#111827">403</text><text x="152" y="180" font-family="Virgil, Segoe Print, Comic Sans MS, sans-serif" font-size="14" fill="#111827">Authenticated role is not allowed.</text><line x1="40" y1="196" x2="420" y2="196" stroke="#1f2937" stroke-width="1.5"/><rect x="40" y="196" width="380" height="38" fill="#f9fafb" opacity="0.9"/><text x="52" y="218" font-family="Virgil, Segoe Print, Comic Sans MS, sans-serif" font-size="14" fill="#111827">404</text><text x="152" y="218" font-family="Virgil, Segoe Print, Comic Sans MS, sans-serif" font-size="14" fill="#111827">Resource not found.</text><line x1="40" y1="234" x2="420" y2="234" stroke="#1f2937" stroke-width="1.5"/><rect x="40" y="234" width="380" height="38" fill="#ffffff" opacity="0.9"/><text x="52" y="256" font-family="Virgil, Segoe Print, Comic Sans MS, sans-serif" font-size="14" fill="#111827">500</text><text x="152" y="256" font-family="Virgil, Segoe Print, Comic Sans MS, sans-serif" font-size="14" fill="#111827">Unexpected service or database failure.</text>
</svg>
