<svg xmlns="http://www.w3.org/2000/svg" width="900" height="390" viewBox="0 0 900 390" role="img">
  <defs>
    <marker id="arrow" markerWidth="10" markerHeight="10" refX="8" refY="3" orient="auto" markerUnits="strokeWidth">
      <path d="M0,0 L0,6 L9,3 z" fill="#1f2937"/>
    </marker>
  </defs>
  <rect width="100%" height="100%" fill="#fffdf7"/>
  <line x1="120" y1="180" x2="200" y2="180" stroke="#1f2937" stroke-width="2" marker-end="url(#arrow)"/>
<line x1="350" y1="180" x2="450" y2="180" stroke="#1f2937" stroke-width="2" marker-end="url(#arrow)"/><rect x="370.55" y="165" width="58.900000000000006" height="24" rx="4" fill="#ffffff" opacity="0.92"/><text x="400" y="179" text-anchor="middle" dominant-baseline="middle" font-family="Virgil, Segoe Print, Comic Sans MS, sans-serif" font-size="13" fill="#111827"><tspan x="400" dy="0">/ready</tspan></text>
<line x1="580" y1="165" x2="700" y2="137.30769230769232" stroke="#1f2937" stroke-width="2" marker-end="url(#arrow)"/><rect x="599.825" y="136.15384615384616" width="80.35000000000001" height="24" rx="4" fill="#ffffff" opacity="0.92"/><text x="640" y="150.15384615384616" text-anchor="middle" dominant-baseline="middle" font-family="Virgil, Segoe Print, Comic Sans MS, sans-serif" font-size="13" fill="#111827"><tspan x="640" dy="0">/complete</tspan></text>
<line x1="350" y1="195" x2="700" y2="265" stroke="#1f2937" stroke-width="2" marker-end="url(#arrow)"/><rect x="491.975" y="215" width="66.05000000000001" height="24" rx="4" fill="#ffffff" opacity="0.92"/><text x="525" y="229" text-anchor="middle" dominant-baseline="middle" font-family="Virgil, Segoe Print, Comic Sans MS, sans-serif" font-size="13" fill="#111827"><tspan x="525" dy="0">/cancel</tspan></text>
<line x1="580" y1="205" x2="700" y2="251.15384615384616" stroke="#1f2937" stroke-width="2" marker-end="url(#arrow)"/><rect x="606.975" y="213.0769230769231" width="66.05000000000001" height="24" rx="4" fill="#ffffff" opacity="0.92"/><text x="640" y="227.0769230769231" text-anchor="middle" dominant-baseline="middle" font-family="Virgil, Segoe Print, Comic Sans MS, sans-serif" font-size="13" fill="#111827"><tspan x="640" dy="0">/cancel</tspan></text>
<ellipse cx="85" cy="180" rx="35" ry="35" fill="#f3f4f6" stroke="#1f2937" stroke-width="2"/><text x="85" y="180" text-anchor="middle" dominant-baseline="middle" font-family="Virgil, Segoe Print, Comic Sans MS, sans-serif" font-size="18" fill="#111827"><tspan x="85" dy="0">start</tspan></text>
<rect x="200" y="140" width="150" height="80" rx="8" fill="#fef3c7" stroke="#1f2937" stroke-width="2"/><text x="275" y="180" text-anchor="middle" dominant-baseline="middle" font-family="Virgil, Segoe Print, Comic Sans MS, sans-serif" font-size="18" fill="#111827"><tspan x="275" dy="0">preparing</tspan></text>
<rect x="450" y="140" width="130" height="80" rx="8" fill="#dcfce7" stroke="#1f2937" stroke-width="2"/><text x="515" y="180" text-anchor="middle" dominant-baseline="middle" font-family="Virgil, Segoe Print, Comic Sans MS, sans-serif" font-size="18" fill="#111827"><tspan x="515" dy="0">ready</tspan></text>
<rect x="700" y="80" width="150" height="80" rx="8" fill="#dbeafe" stroke="#1f2937" stroke-width="2"/><text x="775" y="120" text-anchor="middle" dominant-baseline="middle" font-family="Virgil, Segoe Print, Comic Sans MS, sans-serif" font-size="18" fill="#111827"><tspan x="775" dy="0">completed</tspan></text>
<rect x="700" y="240" width="150" height="80" rx="8" fill="#fee2e2" stroke="#1f2937" stroke-width="2"/><text x="775" y="280" text-anchor="middle" dominant-baseline="middle" font-family="Virgil, Segoe Print, Comic Sans MS, sans-serif" font-size="18" fill="#111827"><tspan x="775" dy="0">cancelled</tspan></text>
</svg>
