<svg xmlns="http://www.w3.org/2000/svg" width="467" height="236" viewBox="0 0 467 236" role="img">
  <defs>
    <marker id="arrow" markerWidth="10" markerHeight="10" refX="8" refY="3" orient="auto" markerUnits="strokeWidth">
      <path d="M0,0 L0,6 L9,3 z" fill="#1f2937"/>
    </marker>
  </defs>
  <rect width="100%" height="100%" fill="#fffdf7"/>
  <rect x="40" y="40" width="387" height="156" rx="8" fill="#ffffff" stroke="#1f2937" stroke-width="2"/><rect x="40" y="40" width="387" height="42" rx="8" fill="#dbeafe" stroke="#1f2937" stroke-width="2"/><text x="52" y="66" font-family="Virgil, Segoe Print, Comic Sans MS, sans-serif" font-size="15" fill="#111827">Email</text><line x1="218" y1="40" x2="218" y2="196" stroke="#1f2937" stroke-width="2"/><text x="230" y="66" font-family="Virgil, Segoe Print, Comic Sans MS, sans-serif" font-size="15" fill="#111827">Password</text><line x1="327" y1="40" x2="327" y2="196" stroke="#1f2937" stroke-width="2"/><text x="339" y="66" font-family="Virgil, Segoe Print, Comic Sans MS, sans-serif" font-size="15" fill="#111827">Role</text><line x1="40" y1="82" x2="427" y2="82" stroke="#1f2937" stroke-width="2"/><rect x="40" y="82" width="387" height="38" fill="#ffffff" opacity="0.9"/><text x="52" y="104" font-family="Virgil, Segoe Print, Comic Sans MS, sans-serif" font-size="14" fill="#111827">customer@example.com</text><text x="230" y="104" font-family="Virgil, Segoe Print, Comic Sans MS, sans-serif" font-size="14" fill="#111827">customer123</text><text x="339" y="104" font-family="Virgil, Segoe Print, Comic Sans MS, sans-serif" font-size="14" fill="#111827">user</text><line x1="40" y1="120" x2="427" y2="120" stroke="#1f2937" stroke-width="1.5"/><rect x="40" y="120" width="387" height="38" fill="#f9fafb" opacity="0.9"/><text x="52" y="142" font-family="Virgil, Segoe Print, Comic Sans MS, sans-serif" font-size="14" fill="#111827">barista@coffee.local</text><text x="230" y="142" font-family="Virgil, Segoe Print, Comic Sans MS, sans-serif" font-size="14" fill="#111827">barista123</text><text x="339" y="142" font-family="Virgil, Segoe Print, Comic Sans MS, sans-serif" font-size="14" fill="#111827">barista</text><line x1="40" y1="158" x2="427" y2="158" stroke="#1f2937" stroke-width="1.5"/><rect x="40" y="158" width="387" height="38" fill="#ffffff" opacity="0.9"/><text x="52" y="180" font-family="Virgil, Segoe Print, Comic Sans MS, sans-serif" font-size="14" fill="#111827">admin@coffee.local</text><text x="230" y="180" font-family="Virgil, Segoe Print, Comic Sans MS, sans-serif" font-size="14" fill="#111827">admin123</text><text x="339" y="180" font-family="Virgil, Segoe Print, Comic Sans MS, sans-serif" font-size="14" fill="#111827">admin</text>
</svg>
