<svg xmlns="http://www.w3.org/2000/svg" width="538" height="388" viewBox="0 0 538 388" role="img">
  <defs>
    <marker id="arrow" markerWidth="10" markerHeight="10" refX="8" refY="3" orient="auto" markerUnits="strokeWidth">
      <path d="M0,0 L0,6 L9,3 z" fill="#1f2937"/>
    </marker>
  </defs>
  <rect width="100%" height="100%" fill="#fffdf7"/>
  <rect x="40" y="40" width="458" height="308" rx="8" fill="#ffffff" stroke="#1f2937" stroke-width="2"/><rect x="40" y="40" width="458" height="42" rx="8" fill="#dbeafe" stroke="#1f2937" stroke-width="2"/><text x="52" y="66" font-family="Virgil, Segoe Print, Comic Sans MS, sans-serif" font-size="15" fill="#111827">Container</text><line x1="218" y1="40" x2="218" y2="348" stroke="#1f2937" stroke-width="2"/><text x="230" y="66" font-family="Virgil, Segoe Print, Comic Sans MS, sans-serif" font-size="15" fill="#111827">Purpose</text><line x1="40" y1="82" x2="498" y2="82" stroke="#1f2937" stroke-width="2"/><rect x="40" y="82" width="458" height="38" fill="#ffffff" opacity="0.9"/><text x="52" y="104" font-family="Virgil, Segoe Print, Comic Sans MS, sans-serif" font-size="14" fill="#111827">frontend</text><text x="230" y="104" font-family="Virgil, Segoe Print, Comic Sans MS, sans-serif" font-size="14" fill="#111827">Serves the Vite-built React console through Nginx.</text><line x1="40" y1="120" x2="498" y2="120" stroke="#1f2937" stroke-width="1.5"/><rect x="40" y="120" width="458" height="38" fill="#f9fafb" opacity="0.9"/><text x="52" y="142" font-family="Virgil, Segoe Print, Comic Sans MS, sans-serif" font-size="14" fill="#111827">auth-service</text><text x="230" y="142" font-family="Virgil, Segoe Print, Comic Sans MS, sans-serif" font-size="14" fill="#111827">Owns users, password hashes, JWT issuance, role identity, and auth outbox events.</text><line x1="40" y1="158" x2="498" y2="158" stroke="#1f2937" stroke-width="1.5"/><rect x="40" y="158" width="458" height="38" fill="#ffffff" opacity="0.9"/><text x="52" y="180" font-family="Virgil, Segoe Print, Comic Sans MS, sans-serif" font-size="14" fill="#111827">order-service</text><text x="230" y="180" font-family="Virgil, Segoe Print, Comic Sans MS, sans-serif" font-size="14" fill="#111827">Owns products, orders, checkout, status workflow, and order outbox events.</text><line x1="40" y1="196" x2="498" y2="196" stroke="#1f2937" stroke-width="1.5"/><rect x="40" y="196" width="458" height="38" fill="#f9fafb" opacity="0.9"/><text x="52" y="218" font-family="Virgil, Segoe Print, Comic Sans MS, sans-serif" font-size="14" fill="#111827">notification-service</text><text x="230" y="218" font-family="Virgil, Segoe Print, Comic Sans MS, sans-serif" font-size="14" fill="#111827">Consumes order/auth facts and sends emails. It does not write to another service database.</text><line x1="40" y1="234" x2="498" y2="234" stroke="#1f2937" stroke-width="1.5"/><rect x="40" y="234" width="458" height="38" fill="#ffffff" opacity="0.9"/><text x="52" y="256" font-family="Virgil, Segoe Print, Comic Sans MS, sans-serif" font-size="14" fill="#111827">postgres</text><text x="230" y="256" font-family="Virgil, Segoe Print, Comic Sans MS, sans-serif" font-size="14" fill="#111827">Shared PostgreSQL instance with service-owned tables.</text><line x1="40" y1="272" x2="498" y2="272" stroke="#1f2937" stroke-width="1.5"/><rect x="40" y="272" width="458" height="38" fill="#f9fafb" opacity="0.9"/><text x="52" y="294" font-family="Virgil, Segoe Print, Comic Sans MS, sans-serif" font-size="14" fill="#111827">rabbitmq</text><text x="230" y="294" font-family="Virgil, Segoe Print, Comic Sans MS, sans-serif" font-size="14" fill="#111827">Topic exchange transport for service facts.</text><line x1="40" y1="310" x2="498" y2="310" stroke="#1f2937" stroke-width="1.5"/><rect x="40" y="310" width="458" height="38" fill="#ffffff" opacity="0.9"/><text x="52" y="332" font-family="Virgil, Segoe Print, Comic Sans MS, sans-serif" font-size="14" fill="#111827">mailhog</text><text x="230" y="332" font-family="Virgil, Segoe Print, Comic Sans MS, sans-serif" font-size="14" fill="#111827">Local SMTP sink and email inspection UI.</text>
</svg>
