<svg xmlns="http://www.w3.org/2000/svg" width="523" height="312" viewBox="0 0 523 312" role="img">
  <defs>
    <marker id="arrow" markerWidth="10" markerHeight="10" refX="8" refY="3" orient="auto" markerUnits="strokeWidth">
      <path d="M0,0 L0,6 L9,3 z" fill="#1f2937"/>
    </marker>
  </defs>
  <rect width="100%" height="100%" fill="#fffdf7"/>
  <rect x="40" y="40" width="443" height="232" rx="8" fill="#ffffff" stroke="#1f2937" stroke-width="2"/><rect x="40" y="40" width="443" height="42" rx="8" fill="#dbeafe" stroke="#1f2937" stroke-width="2"/><text x="52" y="66" font-family="Virgil, Segoe Print, Comic Sans MS, sans-serif" font-size="15" fill="#111827">Question</text><line x1="203" y1="40" x2="203" y2="272" stroke="#1f2937" stroke-width="2"/><text x="215" y="66" font-family="Virgil, Segoe Print, Comic Sans MS, sans-serif" font-size="15" fill="#111827">Answer</text><line x1="40" y1="82" x2="483" y2="82" stroke="#1f2937" stroke-width="2"/><rect x="40" y="82" width="443" height="38" fill="#ffffff" opacity="0.9"/><text x="52" y="104" font-family="Virgil, Segoe Print, Comic Sans MS, sans-serif" font-size="14" fill="#111827">How many services?</text><text x="215" y="104" font-family="Virgil, Segoe Print, Comic Sans MS, sans-serif" font-size="14" fill="#111827">Three application services: auth-service, order-service, notification-service.</text><line x1="40" y1="120" x2="483" y2="120" stroke="#1f2937" stroke-width="1.5"/><rect x="40" y="120" width="443" height="38" fill="#f9fafb" opacity="0.9"/><text x="52" y="142" font-family="Virgil, Segoe Print, Comic Sans MS, sans-serif" font-size="14" fill="#111827">How many APIs?</text><text x="215" y="142" font-family="Virgil, Segoe Print, Comic Sans MS, sans-serif" font-size="14" fill="#111827">Two HTTP APIs: auth-service and order-service. Notification-service is event-only.</text><line x1="40" y1="158" x2="483" y2="158" stroke="#1f2937" stroke-width="1.5"/><rect x="40" y="158" width="443" height="38" fill="#ffffff" opacity="0.9"/><text x="52" y="180" font-family="Virgil, Segoe Print, Comic Sans MS, sans-serif" font-size="14" fill="#111827">Why split auth?</text><text x="215" y="180" font-family="Virgil, Segoe Print, Comic Sans MS, sans-serif" font-size="14" fill="#111827">Email/password auth now has its own user table, JWT boundary, and auth events without mixing that logic into order ownership.</text><line x1="40" y1="196" x2="483" y2="196" stroke="#1f2937" stroke-width="1.5"/><rect x="40" y="196" width="443" height="38" fill="#f9fafb" opacity="0.9"/><text x="52" y="218" font-family="Virgil, Segoe Print, Comic Sans MS, sans-serif" font-size="14" fill="#111827">Which roles exist?</text><text x="215" y="218" font-family="Virgil, Segoe Print, Comic Sans MS, sans-serif" font-size="14" fill="#111827">user, barista, admin.</text><line x1="40" y1="234" x2="483" y2="234" stroke="#1f2937" stroke-width="1.5"/><rect x="40" y="234" width="443" height="38" fill="#ffffff" opacity="0.9"/><text x="52" y="256" font-family="Virgil, Segoe Print, Comic Sans MS, sans-serif" font-size="14" fill="#111827">Why RabbitMQ?</text><text x="215" y="256" font-family="Virgil, Segoe Print, Comic Sans MS, sans-serif" font-size="14" fill="#111827">It decouples order and auth side effects from email delivery and lets notification handling retry independently.</text>
</svg>
