<svg xmlns="http://www.w3.org/2000/svg" width="601" height="388" viewBox="0 0 601 388" role="img">
  <defs>
    <marker id="arrow" markerWidth="10" markerHeight="10" refX="8" refY="3" orient="auto" markerUnits="strokeWidth">
      <path d="M0,0 L0,6 L9,3 z" fill="#1f2937"/>
    </marker>
  </defs>
  <rect width="100%" height="100%" fill="#fffdf7"/>
  <rect x="40" y="40" width="521" height="308" rx="8" fill="#ffffff" stroke="#1f2937" stroke-width="2"/><rect x="40" y="40" width="521" height="42" rx="8" fill="#dbeafe" stroke="#1f2937" stroke-width="2"/><text x="52" y="66" font-family="Virgil, Segoe Print, Comic Sans MS, sans-serif" font-size="15" fill="#111827">Field</text><line x1="172" y1="40" x2="172" y2="348" stroke="#1f2937" stroke-width="2"/><text x="184" y="66" font-family="Virgil, Segoe Print, Comic Sans MS, sans-serif" font-size="15" fill="#111827">Type</text><line x1="281" y1="40" x2="281" y2="348" stroke="#1f2937" stroke-width="2"/><text x="293" y="66" font-family="Virgil, Segoe Print, Comic Sans MS, sans-serif" font-size="15" fill="#111827">Notes</text><line x1="40" y1="82" x2="561" y2="82" stroke="#1f2937" stroke-width="2"/><rect x="40" y="82" width="521" height="38" fill="#ffffff" opacity="0.9"/><text x="52" y="104" font-family="Virgil, Segoe Print, Comic Sans MS, sans-serif" font-size="14" fill="#111827">event_id</text><text x="184" y="104" font-family="Virgil, Segoe Print, Comic Sans MS, sans-serif" font-size="14" fill="#111827">string UUID</text><text x="293" y="104" font-family="Virgil, Segoe Print, Comic Sans MS, sans-serif" font-size="14" fill="#111827">Idempotency key.</text><line x1="40" y1="120" x2="561" y2="120" stroke="#1f2937" stroke-width="1.5"/><rect x="40" y="120" width="521" height="38" fill="#f9fafb" opacity="0.9"/><text x="52" y="142" font-family="Virgil, Segoe Print, Comic Sans MS, sans-serif" font-size="14" fill="#111827">order_id</text><text x="184" y="142" font-family="Virgil, Segoe Print, Comic Sans MS, sans-serif" font-size="14" fill="#111827">string UUID</text><text x="293" y="142" font-family="Virgil, Segoe Print, Comic Sans MS, sans-serif" font-size="14" fill="#111827">Aggregate identifier.</text><line x1="40" y1="158" x2="561" y2="158" stroke="#1f2937" stroke-width="1.5"/><rect x="40" y="158" width="521" height="38" fill="#ffffff" opacity="0.9"/><text x="52" y="180" font-family="Virgil, Segoe Print, Comic Sans MS, sans-serif" font-size="14" fill="#111827">customer_email</text><text x="184" y="180" font-family="Virgil, Segoe Print, Comic Sans MS, sans-serif" font-size="14" fill="#111827">string</text><text x="293" y="180" font-family="Virgil, Segoe Print, Comic Sans MS, sans-serif" font-size="14" fill="#111827">Receipt destination.</text><line x1="40" y1="196" x2="561" y2="196" stroke="#1f2937" stroke-width="1.5"/><rect x="40" y="196" width="521" height="38" fill="#f9fafb" opacity="0.9"/><text x="52" y="218" font-family="Virgil, Segoe Print, Comic Sans MS, sans-serif" font-size="14" fill="#111827">status</text><text x="184" y="218" font-family="Virgil, Segoe Print, Comic Sans MS, sans-serif" font-size="14" fill="#111827">string</text><text x="293" y="218" font-family="Virgil, Segoe Print, Comic Sans MS, sans-serif" font-size="14" fill="#111827">Initial order status.</text><line x1="40" y1="234" x2="561" y2="234" stroke="#1f2937" stroke-width="1.5"/><rect x="40" y="234" width="521" height="38" fill="#ffffff" opacity="0.9"/><text x="52" y="256" font-family="Virgil, Segoe Print, Comic Sans MS, sans-serif" font-size="14" fill="#111827">items</text><text x="184" y="256" font-family="Virgil, Segoe Print, Comic Sans MS, sans-serif" font-size="14" fill="#111827">array</text><text x="293" y="256" font-family="Virgil, Segoe Print, Comic Sans MS, sans-serif" font-size="14" fill="#111827">Product snapshot at checkout time.</text><line x1="40" y1="272" x2="561" y2="272" stroke="#1f2937" stroke-width="1.5"/><rect x="40" y="272" width="521" height="38" fill="#f9fafb" opacity="0.9"/><text x="52" y="294" font-family="Virgil, Segoe Print, Comic Sans MS, sans-serif" font-size="14" fill="#111827">total</text><text x="184" y="294" font-family="Virgil, Segoe Print, Comic Sans MS, sans-serif" font-size="14" fill="#111827">integer</text><text x="293" y="294" font-family="Virgil, Segoe Print, Comic Sans MS, sans-serif" font-size="14" fill="#111827">Total in kurus.</text><line x1="40" y1="310" x2="561" y2="310" stroke="#1f2937" stroke-width="1.5"/><rect x="40" y="310" width="521" height="38" fill="#ffffff" opacity="0.9"/><text x="52" y="332" font-family="Virgil, Segoe Print, Comic Sans MS, sans-serif" font-size="14" fill="#111827">occurred_at</text><text x="184" y="332" font-family="Virgil, Segoe Print, Comic Sans MS, sans-serif" font-size="14" fill="#111827">timestamp</text><text x="293" y="332" font-family="Virgil, Segoe Print, Comic Sans MS, sans-serif" font-size="14" fill="#111827">UTC event time.</text>
</svg>
