<svg xmlns="http://www.w3.org/2000/svg" width="980" height="230" viewBox="0 0 980 230" role="img">
  <defs>
    <marker id="arrow" markerWidth="10" markerHeight="10" refX="8" refY="3" orient="auto" markerUnits="strokeWidth">
      <path d="M0,0 L0,6 L9,3 z" fill="#1f2937"/>
    </marker>
  </defs>
  <rect width="100%" height="100%" fill="#fffdf7"/>
  <line x1="185" y1="105" x2="230" y2="105" stroke="#1f2937" stroke-width="2" marker-end="url(#arrow)"/>
<line x1="380" y1="105" x2="425" y2="105" stroke="#1f2937" stroke-width="2" marker-end="url(#arrow)"/>
<line x1="575" y1="105" x2="620" y2="105" stroke="#1f2937" stroke-width="2" marker-end="url(#arrow)"/>
<line x1="790" y1="105" x2="825" y2="105" stroke="#1f2937" stroke-width="2" marker-end="url(#arrow)"/>
<path d="M 35 82 C 35 66, 185 66, 185 82 L 185 128 C 185 144, 35 144, 35 128 Z M 35 82 C 35 98, 185 98, 185 82" fill="#f3f4f6" stroke="#1f2937" stroke-width="2"/><text x="110" y="105" text-anchor="middle" dominant-baseline="middle" font-family="Virgil, Segoe Print, Comic Sans MS, sans-serif" font-size="18" fill="#111827"><tspan x="110" dy="0">order-service DB</tspan></text>
<rect x="230" y="70" width="150" height="70" rx="8" fill="#fef3c7" stroke="#1f2937" stroke-width="2"/><text x="305" y="105" text-anchor="middle" dominant-baseline="middle" font-family="Virgil, Segoe Print, Comic Sans MS, sans-serif" font-size="18" fill="#111827"><tspan x="305" dy="0">outbox_events</tspan></text>
<rect x="425" y="65" width="150" height="80" rx="8" fill="#dcfce7" stroke="#1f2937" stroke-width="2"/><text x="500" y="94.2" text-anchor="middle" dominant-baseline="middle" font-family="Virgil, Segoe Print, Comic Sans MS, sans-serif" font-size="18" fill="#111827"><tspan x="500" dy="0">Outbox</tspan><tspan x="500" dy="21.599999999999998">dispatcher</tspan></text>
<path d="M 620 72 C 620 56, 790 56, 790 72 L 790 138 C 790 154, 620 154, 620 138 Z M 620 72 C 620 88, 790 88, 790 72" fill="#ffedd5" stroke="#1f2937" stroke-width="2"/><text x="705" y="94.2" text-anchor="middle" dominant-baseline="middle" font-family="Virgil, Segoe Print, Comic Sans MS, sans-serif" font-size="18" fill="#111827"><tspan x="705" dy="0">RabbitMQ topic</tspan><tspan x="705" dy="21.599999999999998">coffee.orders</tspan></text>
<rect x="825" y="70" width="130" height="70" rx="8" fill="#dbeafe" stroke="#1f2937" stroke-width="2"/><text x="890" y="105" text-anchor="middle" dominant-baseline="middle" font-family="Virgil, Segoe Print, Comic Sans MS, sans-serif" font-size="14" fill="#111827"><tspan x="890" dy="0">notification-service.orders</tspan></text>
</svg>
