<svg xmlns="http://www.w3.org/2000/svg" width="717" height="215" viewBox="0 0 717 215" role="img">
  <defs>
    <marker id="arrow" markerWidth="10" markerHeight="10" refX="8" refY="3" orient="auto" markerUnits="strokeWidth">
      <path d="M0,0 L0,6 L9,3 z" fill="#1f2937"/>
    </marker>
  </defs>
  <rect width="100%" height="100%" fill="#fffdf7"/>
  <rect x="40" y="40" width="637" height="135" rx="8" fill="#ffffff" stroke="#1f2937" stroke-width="2"/><rect x="40" y="40" width="637" height="42" rx="8" fill="#dbeafe" stroke="#1f2937" stroke-width="2"/><text x="52" y="66" font-family="Virgil, Segoe Print, Comic Sans MS, sans-serif" font-size="15" fill="#111827">Exchange</text><line x1="165" y1="40" x2="165" y2="175" stroke="#1f2937" stroke-width="2"/><text x="177" y="66" font-family="Virgil, Segoe Print, Comic Sans MS, sans-serif" font-size="15" fill="#111827">Routing keys</text><line x1="374" y1="40" x2="374" y2="175" stroke="#1f2937" stroke-width="2"/><text x="386" y="66" font-family="Virgil, Segoe Print, Comic Sans MS, sans-serif" font-size="15" fill="#111827">Publisher</text><line x1="499" y1="40" x2="499" y2="175" stroke="#1f2937" stroke-width="2"/><text x="511" y="66" font-family="Virgil, Segoe Print, Comic Sans MS, sans-serif" font-size="15" fill="#111827">Consumer</text><line x1="40" y1="82" x2="677" y2="82" stroke="#1f2937" stroke-width="2"/><rect x="40" y="82" width="637" height="55" fill="#ffffff" opacity="0.9"/><text x="52" y="104" font-family="Virgil, Segoe Print, Comic Sans MS, sans-serif" font-size="14" fill="#111827">coffee.orders</text><text x="177" y="104" font-family="Virgil, Segoe Print, Comic Sans MS, sans-serif" font-size="14" fill="#111827">order.created</text><text x="177" y="120.8" font-family="Virgil, Segoe Print, Comic Sans MS, sans-serif" font-size="14" fill="#111827">order.status_updated</text><text x="386" y="104" font-family="Virgil, Segoe Print, Comic Sans MS, sans-serif" font-size="14" fill="#111827">order-service</text><text x="511" y="104" font-family="Virgil, Segoe Print, Comic Sans MS, sans-serif" font-size="14" fill="#111827">notification-service</text><line x1="40" y1="137" x2="677" y2="137" stroke="#1f2937" stroke-width="1.5"/><rect x="40" y="137" width="637" height="38" fill="#f9fafb" opacity="0.9"/><text x="52" y="159" font-family="Virgil, Segoe Print, Comic Sans MS, sans-serif" font-size="14" fill="#111827">coffee.auth</text><text x="177" y="159" font-family="Virgil, Segoe Print, Comic Sans MS, sans-serif" font-size="14" fill="#111827">password_reset.requested</text><text x="386" y="159" font-family="Virgil, Segoe Print, Comic Sans MS, sans-serif" font-size="14" fill="#111827">auth-service</text><text x="511" y="159" font-family="Virgil, Segoe Print, Comic Sans MS, sans-serif" font-size="14" fill="#111827">notification-service</text>
</svg>
