<svg xmlns="http://www.w3.org/2000/svg" width="980" height="560" viewBox="0 0 980 560" role="img">
  <defs>
    <marker id="arrow" markerWidth="10" markerHeight="10" refX="8" refY="3" orient="auto" markerUnits="strokeWidth">
      <path d="M0,0 L0,6 L9,3 z" fill="#1f2937"/>
    </marker>
  </defs>
  <rect width="100%" height="100%" fill="#fffdf7"/>
  <line x1="170" y1="275" x2="230" y2="275" stroke="#1f2937" stroke-width="2" marker-end="url(#arrow)"/>
<line x1="380" y1="275" x2="430" y2="275" stroke="#1f2937" stroke-width="2" marker-end="url(#arrow)"/>
<line x1="537.9032258064516" y1="240" x2="642.0967741935484" y2="155" stroke="#1f2937" stroke-width="2" marker-end="url(#arrow)"/>
<line x1="750" y1="120" x2="815" y2="120" stroke="#1f2937" stroke-width="2" marker-end="url(#arrow)"/>
<line x1="883.0434782608696" y1="155" x2="886.9565217391304" y2="200" stroke="#1f2937" stroke-width="2" marker-end="url(#arrow)"/>
<line x1="886.9565217391304" y1="270" x2="883.0434782608696" y2="315" stroke="#1f2937" stroke-width="2" marker-end="url(#arrow)"/>
<line x1="880" y1="385" x2="880" y2="430" stroke="#1f2937" stroke-width="2" marker-end="url(#arrow)"/>
<line x1="815" y1="465" x2="770" y2="465" stroke="#1f2937" stroke-width="2" marker-end="url(#arrow)"/>
<line x1="529.078947368421" y1="310" x2="636.1842105263158" y2="420" stroke="#1f2937" stroke-width="2" marker-end="url(#arrow)"/>
<line x1="706.0869565217391" y1="420" x2="859.7101449275362" y2="155" stroke="#1f2937" stroke-width="2" marker-end="url(#arrow)"/><rect x="739.1485507246377" y="272.5" width="87.5" height="24" rx="4" fill="#ffffff" opacity="0.92"/><text x="782.8985507246377" y="286.5" text-anchor="middle" dominant-baseline="middle" font-family="Virgil, Segoe Print, Comic Sans MS, sans-serif" font-size="13" fill="#111827"><tspan x="782.8985507246377" dy="0">user/admin</tspan></text>
<line x1="620" y1="465" x2="560" y2="465" stroke="#1f2937" stroke-width="2" marker-end="url(#arrow)"/><rect x="535.525" y="450" width="108.95" height="24" rx="4" fill="#ffffff" opacity="0.92"/><text x="590" y="464" text-anchor="middle" dominant-baseline="middle" font-family="Virgil, Segoe Print, Comic Sans MS, sans-serif" font-size="13" fill="#111827"><tspan x="590" dy="0">barista/admin</tspan></text>
<line x1="560" y1="465" x2="815" y2="465" stroke="#1f2937" stroke-width="2" marker-end="url(#arrow)"/><rect x="633.025" y="450" width="108.95" height="24" rx="4" fill="#ffffff" opacity="0.92"/><text x="687.5" y="464" text-anchor="middle" dominant-baseline="middle" font-family="Virgil, Segoe Print, Comic Sans MS, sans-serif" font-size="13" fill="#111827"><tspan x="687.5" dy="0">status action</tspan></text>
<rect x="40" y="240" width="130" height="70" rx="8" fill="#fef3c7" stroke="#1f2937" stroke-width="2"/><text x="105" y="264.2" text-anchor="middle" dominant-baseline="middle" font-family="Virgil, Segoe Print, Comic Sans MS, sans-serif" font-size="18" fill="#111827"><tspan x="105" dy="0">Open</tspan><tspan x="105" dy="21.599999999999998">frontend</tspan></text>
<rect x="230" y="240" width="150" height="70" rx="8" fill="#ede9fe" stroke="#1f2937" stroke-width="2"/><text x="305" y="264.2" text-anchor="middle" dominant-baseline="middle" font-family="Virgil, Segoe Print, Comic Sans MS, sans-serif" font-size="18" fill="#111827"><tspan x="305" dy="0">Login panel</tspan><tspan x="305" dy="21.599999999999998">/demo creds</tspan></text>
<rect x="430" y="240" width="130" height="70" rx="8" fill="#ede9fe" stroke="#1f2937" stroke-width="2"/><text x="495" y="264.2" text-anchor="middle" dominant-baseline="middle" font-family="Virgil, Segoe Print, Comic Sans MS, sans-serif" font-size="18" fill="#111827"><tspan x="495" dy="0">POST /auth/login</tspan><tspan x="495" dy="21.599999999999998">store JWT</tspan></text>
<rect x="620" y="85" width="130" height="70" rx="8" fill="#dbeafe" stroke="#1f2937" stroke-width="2"/><text x="685" y="109.2" text-anchor="middle" dominant-baseline="middle" font-family="Virgil, Segoe Print, Comic Sans MS, sans-serif" font-size="18" fill="#111827"><tspan x="685" dy="0">Load</tspan><tspan x="685" dy="21.599999999999998">/products</tspan></text>
<rect x="815" y="85" width="130" height="70" rx="8" fill="#dcfce7" stroke="#1f2937" stroke-width="2"/><text x="880" y="109.2" text-anchor="middle" dominant-baseline="middle" font-family="Virgil, Segoe Print, Comic Sans MS, sans-serif" font-size="18" fill="#111827"><tspan x="880" dy="0">Menu</tspan><tspan x="880" dy="21.599999999999998">view</tspan></text>
<rect x="815" y="200" width="150" height="70" rx="8" fill="#dcfce7" stroke="#1f2937" stroke-width="2"/><text x="890" y="224.2" text-anchor="middle" dominant-baseline="middle" font-family="Virgil, Segoe Print, Comic Sans MS, sans-serif" font-size="18" fill="#111827"><tspan x="890" dy="0">Add products</tspan><tspan x="890" dy="21.599999999999998">to cart</tspan></text>
<rect x="815" y="315" width="130" height="70" rx="8" fill="#ffedd5" stroke="#1f2937" stroke-width="2"/><text x="880" y="339.2" text-anchor="middle" dominant-baseline="middle" font-family="Virgil, Segoe Print, Comic Sans MS, sans-serif" font-size="18" fill="#111827"><tspan x="880" dy="0">Submit</tspan><tspan x="880" dy="21.599999999999998">/orders</tspan></text>
<rect x="815" y="430" width="130" height="70" rx="8" fill="#dbeafe" stroke="#1f2937" stroke-width="2"/><text x="880" y="454.2" text-anchor="middle" dominant-baseline="middle" font-family="Virgil, Segoe Print, Comic Sans MS, sans-serif" font-size="18" fill="#111827"><tspan x="880" dy="0">Orders</tspan><tspan x="880" dy="21.599999999999998">view</tspan></text>
<rect x="620" y="430" width="150" height="70" rx="8" fill="#dbeafe" stroke="#1f2937" stroke-width="2"/><text x="695" y="454.2" text-anchor="middle" dominant-baseline="middle" font-family="Virgil, Segoe Print, Comic Sans MS, sans-serif" font-size="18" fill="#111827"><tspan x="695" dy="0">Load</tspan><tspan x="695" dy="21.599999999999998">/orders/mine</tspan></text>
<polygon points="680,420 740,465 680,510 620,465" fill="#fef3c7" stroke="#1f2937" stroke-width="2"/><text x="680" y="465" text-anchor="middle" dominant-baseline="middle" font-family="Virgil, Segoe Print, Comic Sans MS, sans-serif" font-size="18" fill="#111827"><tspan x="680" dy="0">Role?</tspan></text>
<rect x="430" y="430" width="130" height="70" rx="8" fill="#ffedd5" stroke="#1f2937" stroke-width="2"/><text x="495" y="454.2" text-anchor="middle" dominant-baseline="middle" font-family="Virgil, Segoe Print, Comic Sans MS, sans-serif" font-size="18" fill="#111827"><tspan x="495" dy="0">Barista</tspan><tspan x="495" dy="21.599999999999998">queue</tspan></text>
</svg>
