<svg xmlns="http://www.w3.org/2000/svg" width="980" height="560" viewBox="0 0 980 560" role="img">
  <defs>
    <marker id="arrow" markerWidth="10" markerHeight="10" refX="8" refY="3" orient="auto" markerUnits="strokeWidth">
      <path d="M0,0 L0,6 L9,3 z" fill="#1f2937"/>
    </marker>
  </defs>
  <rect width="100%" height="100%" fill="#fffdf7"/>
  <line x1="170" y1="242.5" x2="230" y2="212.5" stroke="#1f2937" stroke-width="2" marker-end="url(#arrow)"/>
<line x1="360" y1="180" x2="430" y2="180" stroke="#1f2937" stroke-width="2" marker-end="url(#arrow)"/>
<line x1="560" y1="180" x2="620" y2="180" stroke="#1f2937" stroke-width="2" marker-end="url(#arrow)"/>
<line x1="770" y1="180" x2="815" y2="180" stroke="#1f2937" stroke-width="2" marker-end="url(#arrow)"/>
<line x1="880" y1="215" x2="880" y2="300" stroke="#1f2937" stroke-width="2" marker-end="url(#arrow)"/>
<line x1="815" y1="335" x2="770" y2="335" stroke="#1f2937" stroke-width="2" marker-end="url(#arrow)"/>
<line x1="170" y1="305.875" x2="231.31578947368422" y2="335" stroke="#1f2937" stroke-width="2" marker-end="url(#arrow)"/>
<line x1="380" y1="370" x2="430" y2="370" stroke="#1f2937" stroke-width="2" marker-end="url(#arrow)"/>
<line x1="560" y1="403.3783783783784" x2="620" y2="434.18918918918916" stroke="#1f2937" stroke-width="2" marker-end="url(#arrow)"/>
<line x1="650.7894736842105" y1="420" x2="517.719298245614" y2="215" stroke="#1f2937" stroke-width="2" marker-end="url(#arrow)"/><rect x="519.0543859649122" y="302.5" width="130.4" height="24" rx="4" fill="#ffffff" opacity="0.92"/><text x="584.2543859649122" y="316.5" text-anchor="middle" dominant-baseline="middle" font-family="Virgil, Segoe Print, Comic Sans MS, sans-serif" font-size="13" fill="#111827"><tspan x="584.2543859649122" dy="0">guest/user/admin</tspan></text>
<line x1="740" y1="465" x2="815" y2="465" stroke="#1f2937" stroke-width="2" marker-end="url(#arrow)"/><rect x="723.025" y="450" width="108.95" height="24" rx="4" fill="#ffffff" opacity="0.92"/><text x="777.5" y="464" text-anchor="middle" dominant-baseline="middle" font-family="Virgil, Segoe Print, Comic Sans MS, sans-serif" font-size="13" fill="#111827"><tspan x="777.5" dy="0">barista/admin</tspan></text>
<line x1="880" y1="430" x2="880" y2="370" stroke="#1f2937" stroke-width="2" marker-end="url(#arrow)"/><rect x="825.525" y="385" width="108.95" height="24" rx="4" fill="#ffffff" opacity="0.92"/><text x="880" y="399" text-anchor="middle" dominant-baseline="middle" font-family="Virgil, Segoe Print, Comic Sans MS, sans-serif" font-size="13" fill="#111827"><tspan x="880" dy="0">status action</tspan></text>
<rect x="40" y="240" width="130" height="70" rx="8" fill="#fef3c7" stroke="#1f2937" stroke-width="2"/><text x="105" y="264.2" text-anchor="middle" dominant-baseline="middle" font-family="Virgil, Segoe Print, Comic Sans MS, sans-serif" font-size="18" fill="#111827"><tspan x="105" dy="0">Open</tspan><tspan x="105" dy="21.599999999999998">frontend</tspan></text>
<rect x="230" y="145" width="130" height="70" rx="8" fill="#dbeafe" stroke="#1f2937" stroke-width="2"/><text x="295" y="169.2" text-anchor="middle" dominant-baseline="middle" font-family="Virgil, Segoe Print, Comic Sans MS, sans-serif" font-size="18" fill="#111827"><tspan x="295" dy="0">Load</tspan><tspan x="295" dy="21.599999999999998">/products</tspan></text>
<rect x="430" y="145" width="130" height="70" rx="8" fill="#dcfce7" stroke="#1f2937" stroke-width="2"/><text x="495" y="169.2" text-anchor="middle" dominant-baseline="middle" font-family="Virgil, Segoe Print, Comic Sans MS, sans-serif" font-size="18" fill="#111827"><tspan x="495" dy="0">Menu</tspan><tspan x="495" dy="21.599999999999998">view</tspan></text>
<rect x="620" y="145" width="150" height="70" rx="8" fill="#dcfce7" stroke="#1f2937" stroke-width="2"/><text x="695" y="169.2" text-anchor="middle" dominant-baseline="middle" font-family="Virgil, Segoe Print, Comic Sans MS, sans-serif" font-size="18" fill="#111827"><tspan x="695" dy="0">Add products</tspan><tspan x="695" dy="21.599999999999998">to cart</tspan></text>
<rect x="815" y="145" width="130" height="70" rx="8" fill="#ffedd5" stroke="#1f2937" stroke-width="2"/><text x="880" y="169.2" text-anchor="middle" dominant-baseline="middle" font-family="Virgil, Segoe Print, Comic Sans MS, sans-serif" font-size="18" fill="#111827"><tspan x="880" dy="0">Submit</tspan><tspan x="880" dy="21.599999999999998">/orders</tspan></text>
<rect x="815" y="300" width="130" height="70" rx="8" fill="#dbeafe" stroke="#1f2937" stroke-width="2"/><text x="880" y="324.2" text-anchor="middle" dominant-baseline="middle" font-family="Virgil, Segoe Print, Comic Sans MS, sans-serif" font-size="18" fill="#111827"><tspan x="880" dy="0">Orders</tspan><tspan x="880" dy="21.599999999999998">view</tspan></text>
<rect x="620" y="300" width="150" height="70" rx="8" fill="#dbeafe" stroke="#1f2937" stroke-width="2"/><text x="695" y="324.2" text-anchor="middle" dominant-baseline="middle" font-family="Virgil, Segoe Print, Comic Sans MS, sans-serif" font-size="18" fill="#111827"><tspan x="695" dy="0">Load</tspan><tspan x="695" dy="21.599999999999998">/orders/mine</tspan></text>
<rect x="230" y="335" width="150" height="70" rx="8" fill="#ede9fe" stroke="#1f2937" stroke-width="2"/><text x="305" y="359.2" text-anchor="middle" dominant-baseline="middle" font-family="Virgil, Segoe Print, Comic Sans MS, sans-serif" font-size="18" fill="#111827"><tspan x="305" dy="0">Login /</tspan><tspan x="305" dy="21.599999999999998">signup panel</tspan></text>
<rect x="430" y="335" width="130" height="70" rx="8" fill="#ede9fe" stroke="#1f2937" stroke-width="2"/><text x="495" y="359.2" text-anchor="middle" dominant-baseline="middle" font-family="Virgil, Segoe Print, Comic Sans MS, sans-serif" font-size="18" fill="#111827"><tspan x="495" dy="0">Fetch</tspan><tspan x="495" dy="21.599999999999998">/auth/me</tspan></text>
<polygon points="680,420 740,465 680,510 620,465" fill="#fef3c7" stroke="#1f2937" stroke-width="2"/><text x="680" y="465" text-anchor="middle" dominant-baseline="middle" font-family="Virgil, Segoe Print, Comic Sans MS, sans-serif" font-size="18" fill="#111827"><tspan x="680" dy="0">Role?</tspan></text>
<rect x="815" y="430" width="130" height="70" rx="8" fill="#ffedd5" stroke="#1f2937" stroke-width="2"/><text x="880" y="454.2" text-anchor="middle" dominant-baseline="middle" font-family="Virgil, Segoe Print, Comic Sans MS, sans-serif" font-size="18" fill="#111827"><tspan x="880" dy="0">Barista</tspan><tspan x="880" dy="21.599999999999998">queue</tspan></text>
</svg>
