<svg xmlns="http://www.w3.org/2000/svg" width="980" height="390" viewBox="0 0 980 390" role="img">
  <defs>
    <marker id="arrow" markerWidth="10" markerHeight="10" refX="8" refY="3" orient="auto" markerUnits="strokeWidth">
      <path d="M0,0 L0,6 L9,3 z" fill="#1f2937"/>
    </marker>
  </defs>
  <rect width="100%" height="100%" fill="#fffdf7"/>
  <line x1="170" y1="185" x2="245" y2="185" stroke="#1f2937" stroke-width="2" marker-end="url(#arrow)"/>
<line x1="320" y1="145" x2="320" y2="110" stroke="#1f2937" stroke-width="2" marker-end="url(#arrow)"/><rect x="269.1" y="112.5" width="101.80000000000001" height="24" rx="4" fill="#ffffff" opacity="0.92"/><text x="320" y="126.5" text-anchor="middle" dominant-baseline="middle" font-family="Virgil, Segoe Print, Comic Sans MS, sans-serif" font-size="13" fill="#111827"><tspan x="320" dy="0">validate JWT</tspan></text>
<line x1="395" y1="168.59375" x2="485" y2="148.90625" stroke="#1f2937" stroke-width="2" marker-end="url(#arrow)"/><rect x="374.8" y="143.75" width="130.4" height="24" rx="4" fill="#ffffff" opacity="0.92"/><text x="440" y="157.75" text-anchor="middle" dominant-baseline="middle" font-family="Virgil, Segoe Print, Comic Sans MS, sans-serif" font-size="13" fill="#111827"><tspan x="440" dy="0">identity headers</tspan></text>
<line x1="395" y1="211.78571428571428" x2="485" y2="243.92857142857142" stroke="#1f2937" stroke-width="2" marker-end="url(#arrow)"/>
<line x1="635" y1="131.71875" x2="735" y2="130.67708333333334" stroke="#1f2937" stroke-width="2" marker-end="url(#arrow)"/>
<line x1="645" y1="271.6489361702128" x2="735" y2="270.6914893617021" stroke="#1f2937" stroke-width="2" marker-end="url(#arrow)"/>
<line x1="635" y1="106.71875" x2="735" y2="72.34375" stroke="#1f2937" stroke-width="2" marker-end="url(#arrow)"/>
<line x1="809.4117647058823" y1="85" x2="871.2605042016806" y2="315" stroke="#1f2937" stroke-width="2" marker-end="url(#arrow)"/>
<rect x="40" y="150" width="130" height="70" rx="8" fill="#fef3c7" stroke="#1f2937" stroke-width="2"/><text x="105" y="185" text-anchor="middle" dominant-baseline="middle" font-family="Virgil, Segoe Print, Comic Sans MS, sans-serif" font-size="18" fill="#111827"><tspan x="105" dy="0">Browser</tspan></text>
<rect x="245" y="145" width="150" height="80" rx="8" fill="#dbeafe" stroke="#1f2937" stroke-width="2"/><text x="320" y="174.2" text-anchor="middle" dominant-baseline="middle" font-family="Virgil, Segoe Print, Comic Sans MS, sans-serif" font-size="18" fill="#111827"><tspan x="320" dy="0">Future Go</tspan><tspan x="320" dy="21.599999999999998">gateway</tspan></text>
<rect x="245" y="35" width="150" height="75" rx="8" fill="#ede9fe" stroke="#1f2937" stroke-width="2"/><text x="320" y="61.7" text-anchor="middle" dominant-baseline="middle" font-family="Virgil, Segoe Print, Comic Sans MS, sans-serif" font-size="18" fill="#111827"><tspan x="320" dy="0">Authentik</tspan><tspan x="320" dy="21.599999999999998">OIDC/JWKS</tspan></text>
<rect x="485" y="95" width="150" height="75" rx="8" fill="#dcfce7" stroke="#1f2937" stroke-width="2"/><text x="560" y="121.7" text-anchor="middle" dominant-baseline="middle" font-family="Virgil, Segoe Print, Comic Sans MS, sans-serif" font-size="18" fill="#111827"><tspan x="560" dy="0">Order</tspan><tspan x="560" dy="21.599999999999998">service</tspan></text>
<rect x="485" y="235" width="160" height="75" rx="8" fill="#dcfce7" stroke="#1f2937" stroke-width="2"/><text x="565" y="261.7" text-anchor="middle" dominant-baseline="middle" font-family="Virgil, Segoe Print, Comic Sans MS, sans-serif" font-size="18" fill="#111827"><tspan x="565" dy="0">Future product</tspan><tspan x="565" dy="21.599999999999998">service</tspan></text>
<path d="M 735 107 C 735 91, 865 91, 865 107 L 865 153 C 865 169, 735 169, 735 153 Z M 735 107 C 735 123, 865 123, 865 107" fill="#f3f4f6" stroke="#1f2937" stroke-width="2"/><text x="800" y="130" text-anchor="middle" dominant-baseline="middle" font-family="Virgil, Segoe Print, Comic Sans MS, sans-serif" font-size="18" fill="#111827"><tspan x="800" dy="0">Order DB</tspan></text>
<path d="M 735 247 C 735 231, 865 231, 865 247 L 865 293 C 865 309, 735 309, 735 293 Z M 735 247 C 735 263, 865 263, 865 247" fill="#f3f4f6" stroke="#1f2937" stroke-width="2"/><text x="800" y="270" text-anchor="middle" dominant-baseline="middle" font-family="Virgil, Segoe Print, Comic Sans MS, sans-serif" font-size="18" fill="#111827"><tspan x="800" dy="0">Product DB</tspan></text>
<path d="M 735 27 C 735 11, 865 11, 865 27 L 865 73 C 865 89, 735 89, 735 73 Z M 735 27 C 735 43, 865 43, 865 27" fill="#ffedd5" stroke="#1f2937" stroke-width="2"/><text x="800" y="50" text-anchor="middle" dominant-baseline="middle" font-family="Virgil, Segoe Print, Comic Sans MS, sans-serif" font-size="18" fill="#111827"><tspan x="800" dy="0">RabbitMQ</tspan></text>
<rect x="805" y="315" width="150" height="65" rx="8" fill="#fee2e2" stroke="#1f2937" stroke-width="2"/><text x="880" y="336.7" text-anchor="middle" dominant-baseline="middle" font-family="Virgil, Segoe Print, Comic Sans MS, sans-serif" font-size="18" fill="#111827"><tspan x="880" dy="0">Notification</tspan><tspan x="880" dy="21.599999999999998">service</tspan></text>
</svg>
