<svg xmlns="http://www.w3.org/2000/svg" width="980" height="620" viewBox="0 0 980 620" role="img">
  <defs>
    <marker id="arrow" markerWidth="10" markerHeight="10" refX="8" refY="3" orient="auto" markerUnits="strokeWidth">
      <path d="M0,0 L0,6 L9,3 z" fill="#1f2937"/>
    </marker>
  </defs>
  <rect width="100%" height="100%" fill="#fffdf7"/>
  <line x1="180" y1="293.2926829268293" x2="250" y2="291.5853658536585" stroke="#1f2937" stroke-width="2" marker-end="url(#arrow)"/>
<line x1="380" y1="246.66666666666669" x2="487.5" y2="175" stroke="#1f2937" stroke-width="2" marker-end="url(#arrow)"/><rect x="418.6" y="195.83333333333334" width="30.3" height="24" rx="4" fill="#ffffff" opacity="0.92"/><text x="433.75" y="209.83333333333334" text-anchor="middle" dominant-baseline="middle" font-family="Virgil, Segoe Print, Comic Sans MS, sans-serif" font-size="13" fill="#111827"><tspan x="433.75" dy="0">No</tspan></text>
<line x1="380" y1="290" x2="470" y2="290" stroke="#1f2937" stroke-width="2" marker-end="url(#arrow)"/><rect x="406.275" y="275" width="37.45" height="24" rx="4" fill="#ffffff" opacity="0.92"/><text x="425" y="289" text-anchor="middle" dominant-baseline="middle" font-family="Virgil, Segoe Print, Comic Sans MS, sans-serif" font-size="13" fill="#111827"><tspan x="425" dy="0">Yes</tspan></text>
<line x1="610" y1="242.27272727272728" x2="708.6666666666666" y2="175" stroke="#1f2937" stroke-width="2" marker-end="url(#arrow)"/><rect x="640.6083333333332" y="193.63636363636363" width="37.45" height="24" rx="4" fill="#ffffff" opacity="0.92"/><text x="659.3333333333333" y="207.63636363636363" text-anchor="middle" dominant-baseline="middle" font-family="Virgil, Segoe Print, Comic Sans MS, sans-serif" font-size="13" fill="#111827"><tspan x="659.3333333333333" dy="0">Yes</tspan></text>
<line x1="610" y1="291.55555555555554" x2="690" y2="293.3333333333333" stroke="#1f2937" stroke-width="2" marker-end="url(#arrow)"/><rect x="634.85" y="277.44444444444446" width="30.3" height="24" rx="4" fill="#ffffff" opacity="0.92"/><text x="650" y="291.44444444444446" text-anchor="middle" dominant-baseline="middle" font-family="Virgil, Segoe Print, Comic Sans MS, sans-serif" font-size="13" fill="#111827"><tspan x="650" dy="0">No</tspan></text>
<line x1="766.3793103448276" y1="335" x2="768.6206896551724" y2="400" stroke="#1f2937" stroke-width="2" marker-end="url(#arrow)"/>
<line x1="690" y1="440" x2="610" y2="440" stroke="#1f2937" stroke-width="2" marker-end="url(#arrow)"/>
<line x1="470" y1="436.8181818181818" x2="390" y2="433.1818181818182" stroke="#1f2937" stroke-width="2" marker-end="url(#arrow)"/><rect x="411.275" y="420" width="37.45" height="24" rx="4" fill="#ffffff" opacity="0.92"/><text x="430" y="434" text-anchor="middle" dominant-baseline="middle" font-family="Virgil, Segoe Print, Comic Sans MS, sans-serif" font-size="13" fill="#111827"><tspan x="430" dy="0">Yes</tspan></text>
<line x1="250" y1="430" x2="180" y2="430" stroke="#1f2937" stroke-width="2" marker-end="url(#arrow)"/>
<line x1="540" y1="495" x2="540" y2="535" stroke="#1f2937" stroke-width="2" marker-end="url(#arrow)"/><rect x="524.85" y="500" width="30.3" height="24" rx="4" fill="#ffffff" opacity="0.92"/><text x="540" y="514" text-anchor="middle" dominant-baseline="middle" font-family="Virgil, Segoe Print, Comic Sans MS, sans-serif" font-size="13" fill="#111827"><tspan x="540" dy="0">No</tspan></text>
<rect x="40" y="260" width="140" height="70" rx="8" fill="#dbeafe" stroke="#1f2937" stroke-width="2"/><text x="110" y="295" text-anchor="middle" dominant-baseline="middle" font-family="Virgil, Segoe Print, Comic Sans MS, sans-serif" font-size="18" fill="#111827"><tspan x="110" dy="0">Order event</tspan></text>
<polygon points="315,235 380,290 315,345 250,290" fill="#fef3c7" stroke="#1f2937" stroke-width="2"/><text x="315" y="279.2" text-anchor="middle" dominant-baseline="middle" font-family="Virgil, Segoe Print, Comic Sans MS, sans-serif" font-size="18" fill="#111827"><tspan x="315" dy="0">Known</tspan><tspan x="315" dy="21.599999999999998">event type?</tspan></text>
<rect x="470" y="105" width="140" height="70" rx="8" fill="#f3f4f6" stroke="#1f2937" stroke-width="2"/><text x="540" y="129.2" text-anchor="middle" dominant-baseline="middle" font-family="Virgil, Segoe Print, Comic Sans MS, sans-serif" font-size="18" fill="#111827"><tspan x="540" dy="0">Ack and</tspan><tspan x="540" dy="21.599999999999998">ignore</tspan></text>
<polygon points="540,235 610,290 540,345 470,290" fill="#fef3c7" stroke="#1f2937" stroke-width="2"/><text x="540" y="279.2" text-anchor="middle" dominant-baseline="middle" font-family="Virgil, Segoe Print, Comic Sans MS, sans-serif" font-size="18" fill="#111827"><tspan x="540" dy="0">Event already</tspan><tspan x="540" dy="21.599999999999998">seen?</tspan></text>
<rect x="690" y="105" width="140" height="70" rx="8" fill="#f3f4f6" stroke="#1f2937" stroke-width="2"/><text x="760" y="129.2" text-anchor="middle" dominant-baseline="middle" font-family="Virgil, Segoe Print, Comic Sans MS, sans-serif" font-size="18" fill="#111827"><tspan x="760" dy="0">Ack</tspan><tspan x="760" dy="21.599999999999998">duplicate</tspan></text>
<rect x="690" y="255" width="150" height="80" rx="8" fill="#dcfce7" stroke="#1f2937" stroke-width="2"/><text x="765" y="284.2" text-anchor="middle" dominant-baseline="middle" font-family="Virgil, Segoe Print, Comic Sans MS, sans-serif" font-size="18" fill="#111827"><tspan x="765" dy="0">Format</tspan><tspan x="765" dy="21.599999999999998">customer email</tspan></text>
<rect x="690" y="400" width="160" height="80" rx="8" fill="#ffedd5" stroke="#1f2937" stroke-width="2"/><text x="770" y="429.2" text-anchor="middle" dominant-baseline="middle" font-family="Virgil, Segoe Print, Comic Sans MS, sans-serif" font-size="18" fill="#111827"><tspan x="770" dy="0">Send via SMTP</tspan><tspan x="770" dy="21.599999999999998">or log sender</tspan></text>
<polygon points="540,385 610,440 540,495 470,440" fill="#fef3c7" stroke="#1f2937" stroke-width="2"/><text x="540" y="429.2" text-anchor="middle" dominant-baseline="middle" font-family="Virgil, Segoe Print, Comic Sans MS, sans-serif" font-size="18" fill="#111827"><tspan x="540" dy="0">Send</tspan><tspan x="540" dy="21.599999999999998">succeeded?</tspan></text>
<rect x="250" y="395" width="140" height="70" rx="8" fill="#dcfce7" stroke="#1f2937" stroke-width="2"/><text x="320" y="419.2" text-anchor="middle" dominant-baseline="middle" font-family="Virgil, Segoe Print, Comic Sans MS, sans-serif" font-size="18" fill="#111827"><tspan x="320" dy="0">Remember</tspan><tspan x="320" dy="21.599999999999998">event id</tspan></text>
<rect x="40" y="395" width="140" height="70" rx="8" fill="#dbeafe" stroke="#1f2937" stroke-width="2"/><text x="110" y="419.2" text-anchor="middle" dominant-baseline="middle" font-family="Virgil, Segoe Print, Comic Sans MS, sans-serif" font-size="18" fill="#111827"><tspan x="110" dy="0">Ack</tspan><tspan x="110" dy="21.599999999999998">message</tspan></text>
<rect x="470" y="535" width="140" height="70" rx="8" fill="#fee2e2" stroke="#1f2937" stroke-width="2"/><text x="540" y="559.2" text-anchor="middle" dominant-baseline="middle" font-family="Virgil, Segoe Print, Comic Sans MS, sans-serif" font-size="18" fill="#111827"><tspan x="540" dy="0">Nack /</tspan><tspan x="540" dy="21.599999999999998">retry path</tspan></text>
</svg>
