<svg xmlns="http://www.w3.org/2000/svg" width="1060" height="431" viewBox="0 0 1060 431" role="img">
  <defs>
    <marker id="arrow" markerWidth="10" markerHeight="10" refX="8" refY="3" orient="auto" markerUnits="strokeWidth">
      <path d="M0,0 L0,6 L9,3 z" fill="#1f2937"/>
    </marker>
  </defs>
  <rect width="100%" height="100%" fill="#fffdf7"/>
  <rect x="80" y="45" width="140" height="54" rx="8" fill="#dbeafe" stroke="#1f2937" stroke-width="2"/><text x="150" y="61.2" text-anchor="middle" dominant-baseline="middle" font-family="Virgil, Segoe Print, Comic Sans MS, sans-serif" font-size="18" fill="#111827"><tspan x="150" dy="0">Order</tspan><tspan x="150" dy="21.599999999999998">transaction</tspan></text><line x1="150" y1="109" x2="150" y2="401" stroke="#6b7280" stroke-width="1.5" stroke-dasharray="6 6"/>
<rect x="270" y="45" width="140" height="54" rx="8" fill="#dbeafe" stroke="#1f2937" stroke-width="2"/><text x="340" y="72" text-anchor="middle" dominant-baseline="middle" font-family="Virgil, Segoe Print, Comic Sans MS, sans-serif" font-size="18" fill="#111827"><tspan x="340" dy="0">outbox_events</tspan></text><line x1="340" y1="109" x2="340" y2="401" stroke="#6b7280" stroke-width="1.5" stroke-dasharray="6 6"/>
<rect x="460" y="45" width="140" height="54" rx="8" fill="#dbeafe" stroke="#1f2937" stroke-width="2"/><text x="530" y="61.2" text-anchor="middle" dominant-baseline="middle" font-family="Virgil, Segoe Print, Comic Sans MS, sans-serif" font-size="18" fill="#111827"><tspan x="530" dy="0">Outbox</tspan><tspan x="530" dy="21.599999999999998">dispatcher</tspan></text><line x1="530" y1="109" x2="530" y2="401" stroke="#6b7280" stroke-width="1.5" stroke-dasharray="6 6"/>
<rect x="650" y="45" width="140" height="54" rx="8" fill="#dbeafe" stroke="#1f2937" stroke-width="2"/><text x="720" y="72" text-anchor="middle" dominant-baseline="middle" font-family="Virgil, Segoe Print, Comic Sans MS, sans-serif" font-size="18" fill="#111827"><tspan x="720" dy="0">coffee.orders</tspan></text><line x1="720" y1="109" x2="720" y2="401" stroke="#6b7280" stroke-width="1.5" stroke-dasharray="6 6"/>
<rect x="840" y="45" width="140" height="54" rx="8" fill="#dbeafe" stroke="#1f2937" stroke-width="2"/><text x="910" y="61.2" text-anchor="middle" dominant-baseline="middle" font-family="Virgil, Segoe Print, Comic Sans MS, sans-serif" font-size="18" fill="#111827"><tspan x="910" dy="0">Notification</tspan><tspan x="910" dy="21.599999999999998">service</tspan></text><line x1="910" y1="109" x2="910" y2="401" stroke="#6b7280" stroke-width="1.5" stroke-dasharray="6 6"/>
<line x1="150" y1="150" x2="340" y2="150" stroke="#1f2937" stroke-width="2"  marker-end="url(#arrow)"/><text x="245" y="134" text-anchor="middle" dominant-baseline="middle" font-family="Virgil, Segoe Print, Comic Sans MS, sans-serif" font-size="13" fill="#111827"><tspan x="245" dy="0">Write change + event atomically</tspan></text>
<line x1="530" y1="196" x2="340" y2="196" stroke="#1f2937" stroke-width="2"  marker-end="url(#arrow)"/><text x="435" y="180" text-anchor="middle" dominant-baseline="middle" font-family="Virgil, Segoe Print, Comic Sans MS, sans-serif" font-size="13" fill="#111827"><tspan x="435" dy="0">Poll unpublished events</tspan></text>
<line x1="530" y1="242" x2="720" y2="242" stroke="#1f2937" stroke-width="2"  marker-end="url(#arrow)"/><text x="625" y="226" text-anchor="middle" dominant-baseline="middle" font-family="Virgil, Segoe Print, Comic Sans MS, sans-serif" font-size="13" fill="#111827"><tspan x="625" dy="0">Publish routing key</tspan></text>
<line x1="530" y1="288" x2="340" y2="288" stroke="#1f2937" stroke-width="2"  marker-end="url(#arrow)"/><text x="435" y="272" text-anchor="middle" dominant-baseline="middle" font-family="Virgil, Segoe Print, Comic Sans MS, sans-serif" font-size="13" fill="#111827"><tspan x="435" dy="0">Set published_at / error</tspan></text>
<line x1="720" y1="334" x2="910" y2="334" stroke="#1f2937" stroke-width="2"  marker-end="url(#arrow)"/><text x="815" y="318" text-anchor="middle" dominant-baseline="middle" font-family="Virgil, Segoe Print, Comic Sans MS, sans-serif" font-size="13" fill="#111827"><tspan x="815" dy="0">Deliver event</tspan></text>
<line x1="910" y1="380" x2="720" y2="380" stroke="#1f2937" stroke-width="2" stroke-dasharray="6 6" marker-end="url(#arrow)"/><text x="815" y="364" text-anchor="middle" dominant-baseline="middle" font-family="Virgil, Segoe Print, Comic Sans MS, sans-serif" font-size="13" fill="#111827"><tspan x="815" dy="0">Ack after handling</tspan></text>

</svg>
