<svg xmlns="http://www.w3.org/2000/svg" width="920" height="570" viewBox="0 0 920 570" role="img">
  <defs>
    <marker id="arrow" markerWidth="10" markerHeight="10" refX="8" refY="3" orient="auto" markerUnits="strokeWidth">
      <path d="M0,0 L0,6 L9,3 z" fill="#1f2937"/>
    </marker>
  </defs>
  <rect width="100%" height="100%" fill="#fffdf7"/>
  <line x1="180" y1="270" x2="260" y2="270" stroke="#1f2937" stroke-width="2" marker-end="url(#arrow)"/>
<line x1="390" y1="297.85714285714283" x2="500" y2="345" stroke="#1f2937" stroke-width="2" marker-end="url(#arrow)"/><rect x="411.975" y="306.42857142857144" width="66.05000000000001" height="24" rx="4" fill="#ffffff" opacity="0.92"/><text x="445" y="320.42857142857144" text-anchor="middle" dominant-baseline="middle" font-family="Virgil, Segoe Print, Comic Sans MS, sans-serif" font-size="13" fill="#111827"><tspan x="445" dy="0">missing</tspan></text>
<line x1="390" y1="254.08163265306123" x2="500" y2="227.14285714285714" stroke="#1f2937" stroke-width="2" marker-end="url(#arrow)"/><rect x="411.975" y="225.6122448979592" width="66.05000000000001" height="24" rx="4" fill="#ffffff" opacity="0.92"/><text x="445" y="239.6122448979592" text-anchor="middle" dominant-baseline="middle" font-family="Virgil, Segoe Print, Comic Sans MS, sans-serif" font-size="13" fill="#111827"><tspan x="445" dy="0">present</tspan></text>
<line x1="640" y1="204.47368421052633" x2="700" y2="199.73684210526315" stroke="#1f2937" stroke-width="2" marker-end="url(#arrow)"/>
<line x1="778.5185185185185" y1="145" x2="797.0370370370371" y2="95" stroke="#1f2937" stroke-width="2" marker-end="url(#arrow)"/><rect x="769.0527777777778" y="105" width="37.45" height="24" rx="4" fill="#ffffff" opacity="0.92"/><text x="787.7777777777778" y="119" text-anchor="middle" dominant-baseline="middle" font-family="Virgil, Segoe Print, Comic Sans MS, sans-serif" font-size="13" fill="#111827"><tspan x="787.7777777777778" dy="0">Yes</tspan></text>
<line x1="760" y1="245" x2="760" y2="285" stroke="#1f2937" stroke-width="2" marker-end="url(#arrow)"/><rect x="744.85" y="250" width="30.3" height="24" rx="4" fill="#ffffff" opacity="0.92"/><text x="760" y="264" text-anchor="middle" dominant-baseline="middle" font-family="Virgil, Segoe Print, Comic Sans MS, sans-serif" font-size="13" fill="#111827"><tspan x="760" dy="0">No</tspan></text>
<line x1="779.2307692307693" y1="385" x2="796.5384615384615" y2="430" stroke="#1f2937" stroke-width="2" marker-end="url(#arrow)"/><rect x="769.1596153846154" y="392.5" width="37.45" height="24" rx="4" fill="#ffffff" opacity="0.92"/><text x="787.8846153846155" y="406.5" text-anchor="middle" dominant-baseline="middle" font-family="Virgil, Segoe Print, Comic Sans MS, sans-serif" font-size="13" fill="#111827"><tspan x="787.8846153846155" dy="0">Yes</tspan></text>
<line x1="711.4285714285714" y1="385" x2="624" y2="475" stroke="#1f2937" stroke-width="2" marker-end="url(#arrow)"/><rect x="652.5642857142858" y="415" width="30.3" height="24" rx="4" fill="#ffffff" opacity="0.92"/><text x="667.7142857142858" y="429" text-anchor="middle" dominant-baseline="middle" font-family="Virgil, Segoe Print, Comic Sans MS, sans-serif" font-size="13" fill="#111827"><tspan x="667.7142857142858" dy="0">No</tspan></text>
<line x1="514.5833333333334" y1="410" x2="443.3333333333333" y2="455" stroke="#1f2937" stroke-width="2" marker-end="url(#arrow)"/>
<line x1="775.4022988505747" y1="95" x2="419.54022988505744" y2="455" stroke="#1f2937" stroke-width="2" marker-end="url(#arrow)"/>
<line x1="740" y1="469.8837209302326" x2="455" y2="489.7674418604651" stroke="#1f2937" stroke-width="2" marker-end="url(#arrow)"/>
<line x1="520" y1="505" x2="455" y2="500.35714285714283" stroke="#1f2937" stroke-width="2" marker-end="url(#arrow)"/>
<rect x="40" y="235" width="140" height="70" rx="8" fill="#dbeafe" stroke="#1f2937" stroke-width="2"/><text x="110" y="270" text-anchor="middle" dominant-baseline="middle" font-family="Virgil, Segoe Print, Comic Sans MS, sans-serif" font-size="18" fill="#111827"><tspan x="110" dy="0">HTTP request</tspan></text>
<polygon points="325,215 390,270 325,325 260,270" fill="#fef3c7" stroke="#1f2937" stroke-width="2"/><text x="325" y="259.2" text-anchor="middle" dominant-baseline="middle" font-family="Virgil, Segoe Print, Comic Sans MS, sans-serif" font-size="18" fill="#111827"><tspan x="325" dy="0">Bearer JWT</tspan><tspan x="325" dy="21.599999999999998">present?</tspan></text>
<rect x="500" y="340" width="140" height="70" rx="8" fill="#f3f4f6" stroke="#1f2937" stroke-width="2"/><text x="570" y="364.2" text-anchor="middle" dominant-baseline="middle" font-family="Virgil, Segoe Print, Comic Sans MS, sans-serif" font-size="18" fill="#111827"><tspan x="570" dy="0">401</tspan><tspan x="570" dy="21.599999999999998">required</tspan></text>
<rect x="500" y="170" width="140" height="80" rx="8" fill="#dcfce7" stroke="#1f2937" stroke-width="2"/><text x="570" y="199.2" text-anchor="middle" dominant-baseline="middle" font-family="Virgil, Segoe Print, Comic Sans MS, sans-serif" font-size="18" fill="#111827"><tspan x="570" dy="0">Verify token</tspan><tspan x="570" dy="21.599999999999998">and claims</tspan></text>
<polygon points="760,145 820,195 760,245 700,195" fill="#fef3c7" stroke="#1f2937" stroke-width="2"/><text x="760" y="184.2" text-anchor="middle" dominant-baseline="middle" font-family="Virgil, Segoe Print, Comic Sans MS, sans-serif" font-size="18" fill="#111827"><tspan x="760" dy="0">Role is</tspan><tspan x="760" dy="21.599999999999998">admin?</tspan></text>
<rect x="740" y="25" width="140" height="70" rx="8" fill="#ede9fe" stroke="#1f2937" stroke-width="2"/><text x="810" y="60" text-anchor="middle" dominant-baseline="middle" font-family="Virgil, Segoe Print, Comic Sans MS, sans-serif" font-size="18" fill="#111827"><tspan x="810" dy="0">Role: admin</tspan></text>
<polygon points="760,285 820,335 760,385 700,335" fill="#fef3c7" stroke="#1f2937" stroke-width="2"/><text x="760" y="324.2" text-anchor="middle" dominant-baseline="middle" font-family="Virgil, Segoe Print, Comic Sans MS, sans-serif" font-size="18" fill="#111827"><tspan x="760" dy="0">Role is</tspan><tspan x="760" dy="21.599999999999998">barista?</tspan></text>
<rect x="740" y="430" width="140" height="70" rx="8" fill="#ffedd5" stroke="#1f2937" stroke-width="2"/><text x="810" y="465" text-anchor="middle" dominant-baseline="middle" font-family="Virgil, Segoe Print, Comic Sans MS, sans-serif" font-size="18" fill="#111827"><tspan x="810" dy="0">Role: barista</tspan></text>
<rect x="520" y="475" width="140" height="70" rx="8" fill="#dcfce7" stroke="#1f2937" stroke-width="2"/><text x="590" y="510" text-anchor="middle" dominant-baseline="middle" font-family="Virgil, Segoe Print, Comic Sans MS, sans-serif" font-size="18" fill="#111827"><tspan x="590" dy="0">Role: user</tspan></text>
<rect x="305" y="455" width="150" height="80" rx="8" fill="#fee2e2" stroke="#1f2937" stroke-width="2"/><text x="380" y="484.2" text-anchor="middle" dominant-baseline="middle" font-family="Virgil, Segoe Print, Comic Sans MS, sans-serif" font-size="18" fill="#111827"><tspan x="380" dy="0">Handler</tspan><tspan x="380" dy="21.599999999999998">role guard</tspan></text>
</svg>
