<svg xmlns="http://www.w3.org/2000/svg" width="980" height="540" viewBox="0 0 980 540" role="img">
  <defs>
    <marker id="arrow" markerWidth="10" markerHeight="10" refX="8" refY="3" orient="auto" markerUnits="strokeWidth">
      <path d="M0,0 L0,6 L9,3 z" fill="#1f2937"/>
    </marker>
  </defs>
  <rect width="100%" height="100%" fill="#fffdf7"/>
  <line x1="180" y1="95.47169811320755" x2="310" y2="85.66037735849056" stroke="#1f2937" stroke-width="2" marker-end="url(#arrow)"/>
<line x1="180" y1="97.47368421052632" x2="520" y2="83.15789473684211" stroke="#1f2937" stroke-width="2" marker-end="url(#arrow)"/>
<line x1="180" y1="98.26086956521739" x2="730" y2="82.31884057971014" stroke="#1f2937" stroke-width="2" marker-end="url(#arrow)"/>
<line x1="162.97297297297297" y1="235" x2="334.86486486486484" y2="115" stroke="#1f2937" stroke-width="2" marker-end="url(#arrow)"/>
<line x1="180" y1="293.3018867924528" x2="310.8" y2="355" stroke="#1f2937" stroke-width="2" marker-end="url(#arrow)"/>
<line x1="180" y1="280.4639175257732" x2="520" y2="368.09278350515467" stroke="#1f2937" stroke-width="2" marker-end="url(#arrow)"/>
<line x1="142.71428571428572" y1="400" x2="358.5" y2="115" stroke="#1f2937" stroke-width="2" marker-end="url(#arrow)"/>
<line x1="160.71428571428572" y1="400" x2="547.5" y2="115" stroke="#1f2937" stroke-width="2" marker-end="url(#arrow)"/>
<line x1="179.14285714285714" y1="400" x2="741" y2="115" stroke="#1f2937" stroke-width="2" marker-end="url(#arrow)"/>
<line x1="180" y1="420.9433962264151" x2="310" y2="401.3207547169811" stroke="#1f2937" stroke-width="2" marker-end="url(#arrow)"/>
<line x1="180" y1="425.0515463917526" x2="520" y2="397.0103092783505" stroke="#1f2937" stroke-width="2" marker-end="url(#arrow)"/>
<rect x="60" y="70" width="120" height="60" rx="8" fill="#dcfce7" stroke="#1f2937" stroke-width="2"/><text x="120" y="100" text-anchor="middle" dominant-baseline="middle" font-family="Virgil, Segoe Print, Comic Sans MS, sans-serif" font-size="18" fill="#111827"><tspan x="120" dy="0">user</tspan></text>
<rect x="60" y="235" width="120" height="60" rx="8" fill="#ffedd5" stroke="#1f2937" stroke-width="2"/><text x="120" y="265" text-anchor="middle" dominant-baseline="middle" font-family="Virgil, Segoe Print, Comic Sans MS, sans-serif" font-size="18" fill="#111827"><tspan x="120" dy="0">barista</tspan></text>
<rect x="60" y="400" width="120" height="60" rx="8" fill="#ede9fe" stroke="#1f2937" stroke-width="2"/><text x="120" y="430" text-anchor="middle" dominant-baseline="middle" font-family="Virgil, Segoe Print, Comic Sans MS, sans-serif" font-size="18" fill="#111827"><tspan x="120" dy="0">admin</tspan></text>
<rect x="310" y="45" width="150" height="70" rx="8" fill="#dbeafe" stroke="#1f2937" stroke-width="2"/><text x="385" y="69.2" text-anchor="middle" dominant-baseline="middle" font-family="Virgil, Segoe Print, Comic Sans MS, sans-serif" font-size="18" fill="#111827"><tspan x="385" dy="0">GET</tspan><tspan x="385" dy="21.599999999999998">/products</tspan></text>
<rect x="520" y="45" width="150" height="70" rx="8" fill="#dbeafe" stroke="#1f2937" stroke-width="2"/><text x="595" y="69.2" text-anchor="middle" dominant-baseline="middle" font-family="Virgil, Segoe Print, Comic Sans MS, sans-serif" font-size="18" fill="#111827"><tspan x="595" dy="0">POST</tspan><tspan x="595" dy="21.599999999999998">/orders</tspan></text>
<rect x="730" y="45" width="160" height="70" rx="8" fill="#dbeafe" stroke="#1f2937" stroke-width="2"/><text x="810" y="69.2" text-anchor="middle" dominant-baseline="middle" font-family="Virgil, Segoe Print, Comic Sans MS, sans-serif" font-size="18" fill="#111827"><tspan x="810" dy="0">GET</tspan><tspan x="810" dy="21.599999999999998">/orders/mine</tspan></text>
<rect x="310" y="355" width="150" height="70" rx="8" fill="#fef3c7" stroke="#1f2937" stroke-width="2"/><text x="385" y="379.2" text-anchor="middle" dominant-baseline="middle" font-family="Virgil, Segoe Print, Comic Sans MS, sans-serif" font-size="18" fill="#111827"><tspan x="385" dy="0">GET</tspan><tspan x="385" dy="21.599999999999998">/staff/orders</tspan></text>
<rect x="520" y="355" width="170" height="70" rx="8" fill="#fef3c7" stroke="#1f2937" stroke-width="2"/><text x="605" y="379.2" text-anchor="middle" dominant-baseline="middle" font-family="Virgil, Segoe Print, Comic Sans MS, sans-serif" font-size="18" fill="#111827"><tspan x="605" dy="0">POST staff</tspan><tspan x="605" dy="21.599999999999998">status actions</tspan></text>
</svg>
