<svg xmlns="http://www.w3.org/2000/svg" width="780" height="350" viewBox="0 0 780 350" role="img">
  <defs>
    <marker id="arrow" markerWidth="10" markerHeight="10" refX="8" refY="3" orient="auto" markerUnits="strokeWidth">
      <path d="M0,0 L0,6 L9,3 z" fill="#1f2937"/>
    </marker>
  </defs>
  <rect width="100%" height="100%" fill="#fffdf7"/>
  <rect x="40" y="40" width="700" height="270" rx="8" fill="#ffffff" stroke="#1f2937" stroke-width="2"/><rect x="40" y="40" width="700" height="42" rx="8" fill="#dbeafe" stroke="#1f2937" stroke-width="2"/><text x="52" y="66" font-family="Virgil, Segoe Print, Comic Sans MS, sans-serif" font-size="15" fill="#111827">Symptom</text><line x1="380" y1="40" x2="380" y2="310" stroke="#1f2937" stroke-width="2"/><text x="392" y="66" font-family="Virgil, Segoe Print, Comic Sans MS, sans-serif" font-size="15" fill="#111827">Check</text><line x1="40" y1="82" x2="740" y2="82" stroke="#1f2937" stroke-width="2"/><rect x="40" y="82" width="700" height="38" fill="#ffffff" opacity="0.9"/><text x="52" y="104" font-family="Virgil, Segoe Print, Comic Sans MS, sans-serif" font-size="14" fill="#111827">Staff queue returns 403</text><text x="392" y="104" font-family="Virgil, Segoe Print, Comic Sans MS, sans-serif" font-size="14" fill="#111827">Log in with the barista or admin demo account, then retry the queue request with the bearer token.</text><line x1="40" y1="120" x2="740" y2="120" stroke="#1f2937" stroke-width="1.5"/><rect x="40" y="120" width="700" height="38" fill="#f9fafb" opacity="0.9"/><text x="52" y="142" font-family="Virgil, Segoe Print, Comic Sans MS, sans-serif" font-size="14" fill="#111827">Products return 401</text><text x="392" y="142" font-family="Virgil, Segoe Print, Comic Sans MS, sans-serif" font-size="14" fill="#111827">Log in again so the frontend stores a fresh JWT, or send Authorization: Bearer &lt;token&gt;.</text><line x1="40" y1="158" x2="740" y2="158" stroke="#1f2937" stroke-width="1.5"/><rect x="40" y="158" width="700" height="38" fill="#ffffff" opacity="0.9"/><text x="52" y="180" font-family="Virgil, Segoe Print, Comic Sans MS, sans-serif" font-size="14" fill="#111827">Login returns 401</text><text x="392" y="180" font-family="Virgil, Segoe Print, Comic Sans MS, sans-serif" font-size="14" fill="#111827">Confirm you are calling http://localhost/auth/login with JSON email and password.</text><line x1="40" y1="196" x2="740" y2="196" stroke="#1f2937" stroke-width="1.5"/><rect x="40" y="196" width="700" height="38" fill="#f9fafb" opacity="0.9"/><text x="52" y="218" font-family="Virgil, Segoe Print, Comic Sans MS, sans-serif" font-size="14" fill="#111827">Orders are created but no email appears</text><text x="392" y="218" font-family="Virgil, Segoe Print, Comic Sans MS, sans-serif" font-size="14" fill="#111827">Check RabbitMQ health, notification-service logs, and MailHog at http://localhost:8025.</text><line x1="40" y1="234" x2="740" y2="234" stroke="#1f2937" stroke-width="1.5"/><rect x="40" y="234" width="700" height="38" fill="#ffffff" opacity="0.9"/><text x="52" y="256" font-family="Virgil, Segoe Print, Comic Sans MS, sans-serif" font-size="14" fill="#111827">Product list is empty</text><text x="392" y="256" font-family="Virgil, Segoe Print, Comic Sans MS, sans-serif" font-size="14" fill="#111827">Check order-service startup logs for migration or seed errors.</text><line x1="40" y1="272" x2="740" y2="272" stroke="#1f2937" stroke-width="1.5"/><rect x="40" y="272" width="700" height="38" fill="#f9fafb" opacity="0.9"/><text x="52" y="294" font-family="Virgil, Segoe Print, Comic Sans MS, sans-serif" font-size="14" fill="#111827">make check fails at Docker Compose config</text><text x="392" y="294" font-family="Virgil, Segoe Print, Comic Sans MS, sans-serif" font-size="14" fill="#111827">Run docker compose version and confirm Docker is installed.</text>
</svg>
