<svg xmlns="http://www.w3.org/2000/svg" width="476" height="388" viewBox="0 0 476 388" role="img">
  <defs>
    <marker id="arrow" markerWidth="10" markerHeight="10" refX="8" refY="3" orient="auto" markerUnits="strokeWidth">
      <path d="M0,0 L0,6 L9,3 z" fill="#1f2937"/>
    </marker>
  </defs>
  <rect width="100%" height="100%" fill="#fffdf7"/>
  <rect x="40" y="40" width="396" height="308" rx="8" fill="#ffffff" stroke="#1f2937" stroke-width="2"/><rect x="40" y="40" width="396" height="42" rx="8" fill="#dbeafe" stroke="#1f2937" stroke-width="2"/><text x="52" y="66" font-family="Virgil, Segoe Print, Comic Sans MS, sans-serif" font-size="15" fill="#111827">Component</text><line x1="211" y1="40" x2="211" y2="348" stroke="#1f2937" stroke-width="2"/><text x="223" y="66" font-family="Virgil, Segoe Print, Comic Sans MS, sans-serif" font-size="15" fill="#111827">URL</text><line x1="40" y1="82" x2="436" y2="82" stroke="#1f2937" stroke-width="2"/><rect x="40" y="82" width="396" height="38" fill="#ffffff" opacity="0.9"/><text x="52" y="104" font-family="Virgil, Segoe Print, Comic Sans MS, sans-serif" font-size="14" fill="#111827">Frontend</text><text x="223" y="104" font-family="Virgil, Segoe Print, Comic Sans MS, sans-serif" font-size="14" fill="#111827">http://localhost</text><line x1="40" y1="120" x2="436" y2="120" stroke="#1f2937" stroke-width="1.5"/><rect x="40" y="120" width="396" height="38" fill="#f9fafb" opacity="0.9"/><text x="52" y="142" font-family="Virgil, Segoe Print, Comic Sans MS, sans-serif" font-size="14" fill="#111827">Gateway auth route</text><text x="223" y="142" font-family="Virgil, Segoe Print, Comic Sans MS, sans-serif" font-size="14" fill="#111827">http://localhost/auth</text><line x1="40" y1="158" x2="436" y2="158" stroke="#1f2937" stroke-width="1.5"/><rect x="40" y="158" width="396" height="38" fill="#ffffff" opacity="0.9"/><text x="52" y="180" font-family="Virgil, Segoe Print, Comic Sans MS, sans-serif" font-size="14" fill="#111827">Gateway order route</text><text x="223" y="180" font-family="Virgil, Segoe Print, Comic Sans MS, sans-serif" font-size="14" fill="#111827">http://localhost/api</text><line x1="40" y1="196" x2="436" y2="196" stroke="#1f2937" stroke-width="1.5"/><rect x="40" y="196" width="396" height="38" fill="#f9fafb" opacity="0.9"/><text x="52" y="218" font-family="Virgil, Segoe Print, Comic Sans MS, sans-serif" font-size="14" fill="#111827">Auth health</text><text x="223" y="218" font-family="Virgil, Segoe Print, Comic Sans MS, sans-serif" font-size="14" fill="#111827">http://localhost:8081/ping</text><line x1="40" y1="234" x2="436" y2="234" stroke="#1f2937" stroke-width="1.5"/><rect x="40" y="234" width="396" height="38" fill="#ffffff" opacity="0.9"/><text x="52" y="256" font-family="Virgil, Segoe Print, Comic Sans MS, sans-serif" font-size="14" fill="#111827">Order health</text><text x="223" y="256" font-family="Virgil, Segoe Print, Comic Sans MS, sans-serif" font-size="14" fill="#111827">http://localhost:8080/ping</text><line x1="40" y1="272" x2="436" y2="272" stroke="#1f2937" stroke-width="1.5"/><rect x="40" y="272" width="396" height="38" fill="#f9fafb" opacity="0.9"/><text x="52" y="294" font-family="Virgil, Segoe Print, Comic Sans MS, sans-serif" font-size="14" fill="#111827">RabbitMQ management</text><text x="223" y="294" font-family="Virgil, Segoe Print, Comic Sans MS, sans-serif" font-size="14" fill="#111827">http://localhost:15672</text><line x1="40" y1="310" x2="436" y2="310" stroke="#1f2937" stroke-width="1.5"/><rect x="40" y="310" width="396" height="38" fill="#ffffff" opacity="0.9"/><text x="52" y="332" font-family="Virgil, Segoe Print, Comic Sans MS, sans-serif" font-size="14" fill="#111827">MailHog</text><text x="223" y="332" font-family="Virgil, Segoe Print, Comic Sans MS, sans-serif" font-size="14" fill="#111827">http://localhost:8025</text>
</svg>
