<svg xmlns="http://www.w3.org/2000/svg" width="693" height="198" viewBox="0 0 693 198" role="img">
  <defs>
    <marker id="arrow" markerWidth="10" markerHeight="10" refX="8" refY="3" orient="auto" markerUnits="strokeWidth">
      <path d="M0,0 L0,6 L9,3 z" fill="#1f2937"/>
    </marker>
  </defs>
  <rect width="100%" height="100%" fill="#fffdf7"/>
  <rect x="40" y="40" width="613" height="118" rx="8" fill="#ffffff" stroke="#1f2937" stroke-width="2"/><rect x="40" y="40" width="613" height="42" rx="8" fill="#dbeafe" stroke="#1f2937" stroke-width="2"/><text x="52" y="66" font-family="Virgil, Segoe Print, Comic Sans MS, sans-serif" font-size="15" fill="#111827">Variable</text><line x1="195" y1="40" x2="195" y2="158" stroke="#1f2937" stroke-width="2"/><text x="207" y="66" font-family="Virgil, Segoe Print, Comic Sans MS, sans-serif" font-size="15" fill="#111827">Default</text><line x1="373" y1="40" x2="373" y2="158" stroke="#1f2937" stroke-width="2"/><text x="385" y="66" font-family="Virgil, Segoe Print, Comic Sans MS, sans-serif" font-size="15" fill="#111827">Purpose</text><line x1="40" y1="82" x2="653" y2="82" stroke="#1f2937" stroke-width="2"/><rect x="40" y="82" width="613" height="38" fill="#ffffff" opacity="0.9"/><text x="52" y="104" font-family="Virgil, Segoe Print, Comic Sans MS, sans-serif" font-size="14" fill="#111827">VITE_API_URL</text><text x="207" y="104" font-family="Virgil, Segoe Print, Comic Sans MS, sans-serif" font-size="14" fill="#111827">http://localhost/api</text><text x="385" y="104" font-family="Virgil, Segoe Print, Comic Sans MS, sans-serif" font-size="14" fill="#111827">Order API base URL used by the browser.</text><line x1="40" y1="120" x2="653" y2="120" stroke="#1f2937" stroke-width="1.5"/><rect x="40" y="120" width="613" height="38" fill="#f9fafb" opacity="0.9"/><text x="52" y="142" font-family="Virgil, Segoe Print, Comic Sans MS, sans-serif" font-size="14" fill="#111827">VITE_AUTH_API_URL</text><text x="207" y="142" font-family="Virgil, Segoe Print, Comic Sans MS, sans-serif" font-size="14" fill="#111827">http://localhost</text><text x="385" y="142" font-family="Virgil, Segoe Print, Comic Sans MS, sans-serif" font-size="14" fill="#111827">Auth API base URL used by the browser.</text>
</svg>
