<svg xmlns="http://www.w3.org/2000/svg" width="980" height="560" viewBox="0 0 980 560" role="img">
  <defs>
    <marker id="arrow" markerWidth="10" markerHeight="10" refX="8" refY="3" orient="auto" markerUnits="strokeWidth">
      <path d="M0,0 L0,6 L9,3 z" fill="#1f2937"/>
    </marker>
  </defs>
  <rect width="100%" height="100%" fill="#fffdf7"/>
  <line x1="165" y1="270" x2="245" y2="270" stroke="#1f2937" stroke-width="2" marker-end="url(#arrow)"/><rect x="164.825" y="255" width="80.35000000000001" height="24" rx="4" fill="#ffffff" opacity="0.92"/><text x="205" y="269" text-anchor="middle" dominant-baseline="middle" font-family="Virgil, Segoe Print, Comic Sans MS, sans-serif" font-size="13" fill="#111827"><tspan x="205" dy="0">loads app</tspan></text>
<line x1="165" y1="270" x2="500" y2="270" stroke="#1f2937" stroke-width="2" marker-end="url(#arrow)"/><rect x="256.575" y="255" width="151.85000000000002" height="24" rx="4" fill="#ffffff" opacity="0.92"/><text x="332.5" y="269" text-anchor="middle" dominant-baseline="middle" font-family="Virgil, Segoe Print, Comic Sans MS, sans-serif" font-size="13" fill="#111827"><tspan x="332.5" dy="0">HTTP JSON + cookies</tspan></text>
<line x1="588.7323943661971" y1="225" x2="586.056338028169" y2="130" stroke="#1f2937" stroke-width="2" marker-end="url(#arrow)"/><rect x="540.069366197183" y="162.5" width="94.65" height="24" rx="4" fill="#ffffff" opacity="0.92"/><text x="587.394366197183" y="176.5" text-anchor="middle" dominant-baseline="middle" font-family="Virgil, Segoe Print, Comic Sans MS, sans-serif" font-size="13" fill="#111827"><tspan x="587.394366197183" dy="0">auth recipe</tspan></text>
<line x1="670" y1="92.66346153846153" x2="765" y2="92.84615384615384" stroke="#1f2937" stroke-width="2" marker-end="url(#arrow)"/><rect x="680.9" y="77.75480769230768" width="73.2" height="24" rx="4" fill="#ffffff" opacity="0.92"/><text x="717.5" y="91.75480769230768" text-anchor="middle" dominant-baseline="middle" font-family="Virgil, Segoe Print, Comic Sans MS, sans-serif" font-size="13" fill="#111827"><tspan x="717.5" dy="0">metadata</tspan></text>
<line x1="654.8305084745763" y1="225" x2="790.2542372881356" y2="131" stroke="#1f2937" stroke-width="2" marker-end="url(#arrow)"/><rect x="700.242372881356" y="163" width="44.6" height="24" rx="4" fill="#ffffff" opacity="0.92"/><text x="722.542372881356" y="177" text-anchor="middle" dominant-baseline="middle" font-family="Virgil, Segoe Print, Comic Sans MS, sans-serif" font-size="13" fill="#111827"><tspan x="722.542372881356" dy="0">GORM</tspan></text>
<line x1="680" y1="269.29411764705884" x2="765" y2="268.62745098039215" stroke="#1f2937" stroke-width="2" marker-end="url(#arrow)"/><rect x="668.025" y="253.96078431372553" width="108.95" height="24" rx="4" fill="#ffffff" opacity="0.92"/><text x="722.5" y="267.9607843137255" text-anchor="middle" dominant-baseline="middle" font-family="Virgil, Segoe Print, Comic Sans MS, sans-serif" font-size="13" fill="#111827"><tspan x="722.5" dy="0">outbox events</tspan></text>
<line x1="784.7527472527472" y1="311" x2="646.0439560439561" y2="410" stroke="#1f2937" stroke-width="2" marker-end="url(#arrow)"/><rect x="668.0733516483516" y="345.5" width="94.65" height="24" rx="4" fill="#ffffff" opacity="0.92"/><text x="715.3983516483516" y="359.5" text-anchor="middle" dominant-baseline="middle" font-family="Virgil, Segoe Print, Comic Sans MS, sans-serif" font-size="13" fill="#111827"><tspan x="715.3983516483516" dy="0">order facts</tspan></text>
<line x1="680" y1="450.3529411764706" x2="765" y2="450.6862745098039" stroke="#1f2937" stroke-width="2" marker-end="url(#arrow)"/><rect x="700.2" y="435.51960784313724" width="44.6" height="24" rx="4" fill="#ffffff" opacity="0.92"/><text x="722.5" y="449.51960784313724" text-anchor="middle" dominant-baseline="middle" font-family="Virgil, Segoe Print, Comic Sans MS, sans-serif" font-size="13" fill="#111827"><tspan x="722.5" dy="0">SMTP</tspan></text>
<rect x="35" y="235" width="130" height="70" rx="8" fill="#fef3c7" stroke="#1f2937" stroke-width="2"/><text x="100" y="270" text-anchor="middle" dominant-baseline="middle" font-family="Virgil, Segoe Print, Comic Sans MS, sans-serif" font-size="18" fill="#111827"><tspan x="100" dy="0">Browser</tspan></text>
<rect x="245" y="225" width="170" height="90" rx="8" fill="#dbeafe" stroke="#1f2937" stroke-width="2"/><text x="330" y="259.2" text-anchor="middle" dominant-baseline="middle" font-family="Virgil, Segoe Print, Comic Sans MS, sans-serif" font-size="18" fill="#111827"><tspan x="330" dy="0">React frontend</tspan><tspan x="330" dy="21.599999999999998">Nginx :80</tspan></text>
<rect x="500" y="225" width="180" height="90" rx="8" fill="#dcfce7" stroke="#1f2937" stroke-width="2"/><text x="590" y="259.2" text-anchor="middle" dominant-baseline="middle" font-family="Virgil, Segoe Print, Comic Sans MS, sans-serif" font-size="18" fill="#111827"><tspan x="590" dy="0">Order service</tspan><tspan x="590" dy="21.599999999999998">Go/Gin :8080</tspan></text>
<rect x="500" y="55" width="170" height="75" rx="8" fill="#ede9fe" stroke="#1f2937" stroke-width="2"/><text x="585" y="81.7" text-anchor="middle" dominant-baseline="middle" font-family="Virgil, Segoe Print, Comic Sans MS, sans-serif" font-size="18" fill="#111827"><tspan x="585" dy="0">SuperTokens</tspan><tspan x="585" dy="21.599999999999998">:3567</tspan></text>
<path d="M 765 67 C 765 51, 925 51, 925 67 L 925 119 C 925 135, 765 135, 765 119 Z M 765 67 C 765 83, 925 83, 925 67" fill="#f3f4f6" stroke="#1f2937" stroke-width="2"/><text x="845" y="82.2" text-anchor="middle" dominant-baseline="middle" font-family="Virgil, Segoe Print, Comic Sans MS, sans-serif" font-size="18" fill="#111827"><tspan x="845" dy="0">PostgreSQL</tspan><tspan x="845" dy="21.599999999999998">:5432</tspan></text>
<path d="M 765 237 C 765 221, 925 221, 925 237 L 925 299 C 925 315, 765 315, 765 299 Z M 765 237 C 765 253, 925 253, 925 237" fill="#ffedd5" stroke="#1f2937" stroke-width="2"/><text x="845" y="257.2" text-anchor="middle" dominant-baseline="middle" font-family="Virgil, Segoe Print, Comic Sans MS, sans-serif" font-size="18" fill="#111827"><tspan x="845" dy="0">RabbitMQ</tspan><tspan x="845" dy="21.599999999999998">:5672 / :15672</tspan></text>
<rect x="500" y="410" width="180" height="80" rx="8" fill="#dcfce7" stroke="#1f2937" stroke-width="2"/><text x="590" y="439.2" text-anchor="middle" dominant-baseline="middle" font-family="Virgil, Segoe Print, Comic Sans MS, sans-serif" font-size="18" fill="#111827"><tspan x="590" dy="0">Notification</tspan><tspan x="590" dy="21.599999999999998">service</tspan></text>
<rect x="765" y="405" width="160" height="92" rx="8" fill="#fee2e2" stroke="#1f2937" stroke-width="2"/><text x="845" y="429.4" text-anchor="middle" dominant-baseline="middle" font-family="Virgil, Segoe Print, Comic Sans MS, sans-serif" font-size="18" fill="#111827"><tspan x="845" dy="0">MailHog</tspan><tspan x="845" dy="21.599999999999998">SMTP :1025</tspan><tspan x="845" dy="21.599999999999998">UI :8025</tspan></text>
</svg>
