<svg xmlns="http://www.w3.org/2000/svg" width="1120" height="620" viewBox="0 0 1120 620" role="img">
  <defs>
    <marker id="arrow" markerWidth="10" markerHeight="10" refX="8" refY="3" orient="auto" markerUnits="strokeWidth">
      <path d="M0,0 L0,6 L9,3 z" fill="#1f2937"/>
    </marker>
  </defs>
  <rect width="100%" height="100%" fill="#fffdf7"/>
  <line x1="165" y1="290" x2="225" y2="290" stroke="#1f2937" stroke-width="2" marker-end="url(#arrow)"/><rect x="154.825" y="275" width="80.35000000000001" height="24" rx="4" fill="#ffffff" opacity="0.92"/><text x="195" y="289" text-anchor="middle" dominant-baseline="middle" font-family="Virgil, Segoe Print, Comic Sans MS, sans-serif" font-size="13" fill="#111827"><tspan x="195" dy="0">loads app</tspan></text>
<line x1="376.5909090909091" y1="245" x2="495.9090909090909" y2="170" stroke="#1f2937" stroke-width="2" marker-end="url(#arrow)"/><rect x="371.05" y="192.5" width="130.4" height="24" rx="4" fill="#ffffff" opacity="0.92"/><text x="436.25" y="206.5" text-anchor="middle" dominant-baseline="middle" font-family="Virgil, Segoe Print, Comic Sans MS, sans-serif" font-size="13" fill="#111827"><tspan x="436.25" dy="0">POST /auth/login</tspan></text>
<line x1="385" y1="290" x2="475" y2="290" stroke="#1f2937" stroke-width="2" marker-end="url(#arrow)"/><rect x="350.5" y="275" width="159" height="24" rx="4" fill="#ffffff" opacity="0.92"/><text x="430" y="289" text-anchor="middle" dominant-baseline="middle" font-family="Virgil, Segoe Print, Comic Sans MS, sans-serif" font-size="13" fill="#111827"><tspan x="430" dy="0">Bearer JWT API calls</tspan></text>
<line x1="660" y1="146.635593220339" x2="780" y2="174.70338983050848" stroke="#1f2937" stroke-width="2" marker-end="url(#arrow)"/><rect x="661.95" y="145.66949152542372" width="116.10000000000001" height="24" rx="4" fill="#ffffff" opacity="0.92"/><text x="720" y="159.66949152542372" text-anchor="middle" dominant-baseline="middle" font-family="Virgil, Segoe Print, Comic Sans MS, sans-serif" font-size="13" fill="#111827"><tspan x="720" dy="0">users + outbox</tspan></text>
<line x1="660" y1="259.89830508474574" x2="780" y2="220.84745762711864" stroke="#1f2937" stroke-width="2" marker-end="url(#arrow)"/><rect x="619.05" y="225.37288135593218" width="201.9" height="24" rx="4" fill="#ffffff" opacity="0.92"/><text x="720" y="239.37288135593218" text-anchor="middle" dominant-baseline="middle" font-family="Virgil, Segoe Print, Comic Sans MS, sans-serif" font-size="13" fill="#111827"><tspan x="720" dy="0">products + orders + outbox</tspan></text>
<line x1="619.6551724137931" y1="170" x2="816.6858237547892" y2="340" stroke="#1f2937" stroke-width="2" marker-end="url(#arrow)"/><rect x="670.8454980842912" y="240" width="94.65" height="24" rx="4" fill="#ffffff" opacity="0.92"/><text x="718.1704980842912" y="254" text-anchor="middle" dominant-baseline="middle" font-family="Virgil, Segoe Print, Comic Sans MS, sans-serif" font-size="13" fill="#111827"><tspan x="718.1704980842912" dy="0">coffee.auth</tspan></text>
<line x1="660" y1="319.35537190082647" x2="780" y2="357.43801652892563" stroke="#1f2937" stroke-width="2" marker-end="url(#arrow)"/><rect x="665.525" y="323.39669421487605" width="108.95" height="24" rx="4" fill="#ffffff" opacity="0.92"/><text x="720" y="337.39669421487605" text-anchor="middle" dominant-baseline="middle" font-family="Virgil, Segoe Print, Comic Sans MS, sans-serif" font-size="13" fill="#111827"><tspan x="720" dy="0">coffee.orders</tspan></text>
<line x1="780" y1="422.89256198347107" x2="660" y2="472.08264462809916" stroke="#1f2937" stroke-width="2" marker-end="url(#arrow)"/><rect x="665.525" y="432.4876033057851" width="108.95" height="24" rx="4" fill="#ffffff" opacity="0.92"/><text x="720" y="446.4876033057851" text-anchor="middle" dominant-baseline="middle" font-family="Virgil, Segoe Print, Comic Sans MS, sans-serif" font-size="13" fill="#111827"><tspan x="720" dy="0">deliver facts</tspan></text>
<line x1="660" y1="513.3636363636364" x2="780" y2="517.7272727272727" stroke="#1f2937" stroke-width="2" marker-end="url(#arrow)"/><rect x="697.7" y="500.5454545454545" width="44.6" height="24" rx="4" fill="#ffffff" opacity="0.92"/><text x="720" y="514.5454545454545" text-anchor="middle" dominant-baseline="middle" font-family="Virgil, Segoe Print, Comic Sans MS, sans-serif" font-size="13" fill="#111827"><tspan x="720" dy="0">SMTP</tspan></text>
<rect x="35" y="255" width="130" height="70" rx="8" fill="#fef3c7" stroke="#1f2937" stroke-width="2"/><text x="100" y="290" text-anchor="middle" dominant-baseline="middle" font-family="Virgil, Segoe Print, Comic Sans MS, sans-serif" font-size="18" fill="#111827"><tspan x="100" dy="0">Browser</tspan></text>
<rect x="225" y="245" width="160" height="90" rx="8" fill="#dbeafe" stroke="#1f2937" stroke-width="2"/><text x="305" y="279.2" text-anchor="middle" dominant-baseline="middle" font-family="Virgil, Segoe Print, Comic Sans MS, sans-serif" font-size="18" fill="#111827"><tspan x="305" dy="0">Frontend</tspan><tspan x="305" dy="21.599999999999998">Nginx :80</tspan></text>
<rect x="475" y="80" width="185" height="90" rx="8" fill="#ede9fe" stroke="#1f2937" stroke-width="2"/><text x="567.5" y="114.2" text-anchor="middle" dominant-baseline="middle" font-family="Virgil, Segoe Print, Comic Sans MS, sans-serif" font-size="18" fill="#111827"><tspan x="567.5" dy="0">Auth service</tspan><tspan x="567.5" dy="21.599999999999998">Go/Gin :8081</tspan></text>
<rect x="475" y="245" width="185" height="90" rx="8" fill="#dcfce7" stroke="#1f2937" stroke-width="2"/><text x="567.5" y="279.2" text-anchor="middle" dominant-baseline="middle" font-family="Virgil, Segoe Print, Comic Sans MS, sans-serif" font-size="18" fill="#111827"><tspan x="567.5" dy="0">Order service</tspan><tspan x="567.5" dy="21.599999999999998">Go/Gin :8080</tspan></text>
<path d="M 780 167 C 780 151, 945 151, 945 167 L 945 221 C 945 237, 780 237, 780 221 Z M 780 167 C 780 183, 945 183, 945 167" fill="#f3f4f6" stroke="#1f2937" stroke-width="2"/><text x="862.5" y="183.2" text-anchor="middle" dominant-baseline="middle" font-family="Virgil, Segoe Print, Comic Sans MS, sans-serif" font-size="18" fill="#111827"><tspan x="862.5" dy="0">PostgreSQL</tspan><tspan x="862.5" dy="21.599999999999998">:5432</tspan></text>
<path d="M 780 352 C 780 336, 960 336, 960 352 L 960 420 C 960 436, 780 436, 780 420 Z M 780 352 C 780 368, 960 368, 960 352" fill="#ffedd5" stroke="#1f2937" stroke-width="2"/><text x="870" y="375.2" text-anchor="middle" dominant-baseline="middle" font-family="Virgil, Segoe Print, Comic Sans MS, sans-serif" font-size="18" fill="#111827"><tspan x="870" dy="0">RabbitMQ</tspan><tspan x="870" dy="21.599999999999998">:5672 / :15672</tspan></text>
<rect x="475" y="470" width="185" height="80" rx="8" fill="#dcfce7" stroke="#1f2937" stroke-width="2"/><text x="567.5" y="499.2" text-anchor="middle" dominant-baseline="middle" font-family="Virgil, Segoe Print, Comic Sans MS, sans-serif" font-size="18" fill="#111827"><tspan x="567.5" dy="0">Notification</tspan><tspan x="567.5" dy="21.599999999999998">service</tspan></text>
<rect x="780" y="475" width="180" height="92" rx="8" fill="#fee2e2" stroke="#1f2937" stroke-width="2"/><text x="870" y="499.4" text-anchor="middle" dominant-baseline="middle" font-family="Virgil, Segoe Print, Comic Sans MS, sans-serif" font-size="18" fill="#111827"><tspan x="870" dy="0">MailHog</tspan><tspan x="870" dy="21.599999999999998">SMTP :1025</tspan><tspan x="870" dy="21.599999999999998">UI :8025</tspan></text>
</svg>
