<svg xmlns="http://www.w3.org/2000/svg" width="1020" height="520" viewBox="0 0 1020 520" role="img">
  <defs>
    <marker id="arrow" markerWidth="10" markerHeight="10" refX="8" refY="3" orient="auto" markerUnits="strokeWidth">
      <path d="M0,0 L0,6 L9,3 z" fill="#1f2937"/>
    </marker>
  </defs>
  <rect width="100%" height="100%" fill="#fffdf7"/>
  <line x1="223.60759493670884" y1="210" x2="340.56962025316454" y2="144" stroke="#1f2937" stroke-width="2" marker-end="url(#arrow)"/>
<line x1="230" y1="250.5" x2="320" y2="241.5" stroke="#1f2937" stroke-width="2" marker-end="url(#arrow)"/>
<line x1="230" y1="294.60714285714283" x2="320" y2="327.39285714285717" stroke="#1f2937" stroke-width="2" marker-end="url(#arrow)"/>
<line x1="505.46153846153845" y1="144" x2="610" y2="192.53571428571428" stroke="#1f2937" stroke-width="2" marker-end="url(#arrow)"/>
<line x1="505.46153846153845" y1="320" x2="610" y2="271.4642857142857" stroke="#1f2937" stroke-width="2" marker-end="url(#arrow)"/>
<line x1="698" y1="274" x2="702" y2="330" stroke="#1f2937" stroke-width="2" marker-end="url(#arrow)"/>
<line x1="800" y1="337.2439024390244" x2="830" y2="326.2682926829268" stroke="#1f2937" stroke-width="2" marker-end="url(#arrow)"/>
<rect x="40" y="210" width="190" height="100" rx="8" fill="#dbeafe" stroke="#1f2937" stroke-width="2"/><text x="135" y="238.4" text-anchor="middle" dominant-baseline="middle" font-family="Virgil, Segoe Print, Comic Sans MS, sans-serif" font-size="18" fill="#111827"><tspan x="135" dy="0">Frontend</tspan><tspan x="135" dy="21.599999999999998">login, menu, cart,</tspan><tspan x="135" dy="21.599999999999998">orders, queue</tspan></text>
<rect x="320" y="60" width="190" height="84" rx="8" fill="#ede9fe" stroke="#1f2937" stroke-width="2"/><text x="415" y="91.2" text-anchor="middle" dominant-baseline="middle" font-family="Virgil, Segoe Print, Comic Sans MS, sans-serif" font-size="18" fill="#111827"><tspan x="415" dy="0">Auth service</tspan><tspan x="415" dy="21.599999999999998">users + JWT issue</tspan></text>
<rect x="320" y="190" width="190" height="84" rx="8" fill="#dcfce7" stroke="#1f2937" stroke-width="2"/><text x="415" y="221.2" text-anchor="middle" dominant-baseline="middle" font-family="Virgil, Segoe Print, Comic Sans MS, sans-serif" font-size="18" fill="#111827"><tspan x="415" dy="0">Order service</tspan><tspan x="415" dy="21.599999999999998">products</tspan></text>
<rect x="320" y="320" width="190" height="84" rx="8" fill="#dcfce7" stroke="#1f2937" stroke-width="2"/><text x="415" y="351.2" text-anchor="middle" dominant-baseline="middle" font-family="Virgil, Segoe Print, Comic Sans MS, sans-serif" font-size="18" fill="#111827"><tspan x="415" dy="0">Order service</tspan><tspan x="415" dy="21.599999999999998">orders + workflow</tspan></text>
<rect x="610" y="190" width="170" height="84" rx="8" fill="#fef3c7" stroke="#1f2937" stroke-width="2"/><text x="695" y="221.2" text-anchor="middle" dominant-baseline="middle" font-family="Virgil, Segoe Print, Comic Sans MS, sans-serif" font-size="18" fill="#111827"><tspan x="695" dy="0">Transactional</tspan><tspan x="695" dy="21.599999999999998">outboxes</tspan></text>
<rect x="610" y="330" width="190" height="84" rx="8" fill="#ffedd5" stroke="#1f2937" stroke-width="2"/><text x="705" y="361.2" text-anchor="middle" dominant-baseline="middle" font-family="Virgil, Segoe Print, Comic Sans MS, sans-serif" font-size="18" fill="#111827"><tspan x="705" dy="0">Notification service</tspan><tspan x="705" dy="21.599999999999998">RabbitMQ consumer</tspan></text>
<rect x="830" y="255" width="160" height="84" rx="8" fill="#fee2e2" stroke="#1f2937" stroke-width="2"/><text x="910" y="287.4" text-anchor="middle" dominant-baseline="middle" font-family="Virgil, Segoe Print, Comic Sans MS, sans-serif" font-size="16" fill="#111827"><tspan x="910" dy="0">Email formatting</tspan><tspan x="910" dy="19.2">SMTP / log sender</tspan></text>
</svg>
