<svg xmlns="http://www.w3.org/2000/svg" width="980" height="560" viewBox="0 0 980 560" role="img">
  <defs>
    <marker id="arrow" markerWidth="10" markerHeight="10" refX="8" refY="3" orient="auto" markerUnits="strokeWidth">
      <path d="M0,0 L0,6 L9,3 z" fill="#1f2937"/>
    </marker>
  </defs>
  <rect width="100%" height="100%" fill="#fffdf7"/>
  <line x1="180" y1="178.2127659574468" x2="260" y2="208.17021276595744" stroke="#1f2937" stroke-width="2" marker-end="url(#arrow)"/><rect x="197.7" y="178.1914893617021" width="44.6" height="24" rx="4" fill="#ffffff" opacity="0.92"/><text x="220" y="192.1914893617021" text-anchor="middle" dominant-baseline="middle" font-family="Virgil, Segoe Print, Comic Sans MS, sans-serif" font-size="13" fill="#111827"><tspan x="220" dy="0">uses</tspan></text>
<line x1="180" y1="304.59574468085106" x2="260" y2="273.27659574468083" stroke="#1f2937" stroke-width="2" marker-end="url(#arrow)"/><rect x="197.7" y="273.93617021276594" width="44.6" height="24" rx="4" fill="#ffffff" opacity="0.92"/><text x="220" y="287.93617021276594" text-anchor="middle" dominant-baseline="middle" font-family="Virgil, Segoe Print, Comic Sans MS, sans-serif" font-size="13" fill="#111827"><tspan x="220" dy="0">uses</tspan></text>
<line x1="430" y1="238.39622641509433" x2="520" y2="236.69811320754718" stroke="#1f2937" stroke-width="2" marker-end="url(#arrow)"/><rect x="388.35" y="222.54716981132077" width="173.3" height="24" rx="4" fill="#ffffff" opacity="0.92"/><text x="475" y="236.54716981132077" text-anchor="middle" dominant-baseline="middle" font-family="Virgil, Segoe Print, Comic Sans MS, sans-serif" font-size="13" fill="#111827"><tspan x="475" dy="0">HTTP JSON + Bearer JWT</tspan></text>
<line x1="605.78125" y1="190" x2="598.28125" y2="110" stroke="#1f2937" stroke-width="2" marker-end="url(#arrow)"/><rect x="554.70625" y="135" width="94.65" height="24" rx="4" fill="#ffffff" opacity="0.92"/><text x="602.03125" y="149" text-anchor="middle" dominant-baseline="middle" font-family="Virgil, Segoe Print, Comic Sans MS, sans-serif" font-size="13" fill="#111827"><tspan x="602.03125" dy="0">role claims</tspan></text>
<line x1="686.1029411764706" y1="190" x2="774.0441176470588" y2="138" stroke="#1f2937" stroke-width="2" marker-end="url(#arrow)"/><rect x="707.7735294117647" y="149" width="44.6" height="24" rx="4" fill="#ffffff" opacity="0.92"/><text x="730.0735294117646" y="163" text-anchor="middle" dominant-baseline="middle" font-family="Virgil, Segoe Print, Comic Sans MS, sans-serif" font-size="13" fill="#111827"><tspan x="730.0735294117646" dy="0">GORM</tspan></text>
<line x1="700" y1="248.30434782608697" x2="760" y2="257.17391304347825" stroke="#1f2937" stroke-width="2" marker-end="url(#arrow)"/><rect x="671.95" y="237.73913043478262" width="116.10000000000001" height="24" rx="4" fill="#ffffff" opacity="0.92"/><text x="730" y="251.73913043478262" text-anchor="middle" dominant-baseline="middle" font-family="Virgil, Segoe Print, Comic Sans MS, sans-serif" font-size="13" fill="#111827"><tspan x="730" dy="0">publish events</tspan></text>
<line x1="784.2857142857143" y1="308" x2="667.1428571428571" y2="390" stroke="#1f2937" stroke-width="2" marker-end="url(#arrow)"/><rect x="671.2392857142858" y="334" width="108.95" height="24" rx="4" fill="#ffffff" opacity="0.92"/><text x="725.7142857142858" y="348" text-anchor="middle" dominant-baseline="middle" font-family="Virgil, Segoe Print, Comic Sans MS, sans-serif" font-size="13" fill="#111827"><tspan x="725.7142857142858" dy="0">deliver facts</tspan></text>
<line x1="700" y1="429.60869565217394" x2="760" y2="429.3478260869565" stroke="#1f2937" stroke-width="2" marker-end="url(#arrow)"/><rect x="707.7" y="414.47826086956525" width="44.6" height="24" rx="4" fill="#ffffff" opacity="0.92"/><text x="730" y="428.47826086956525" text-anchor="middle" dominant-baseline="middle" font-family="Virgil, Segoe Print, Comic Sans MS, sans-serif" font-size="13" fill="#111827"><tspan x="730" dy="0">SMTP</tspan></text>
<rect x="40" y="120" width="140" height="64" rx="8" fill="#fef3c7" stroke="#1f2937" stroke-width="2"/><text x="110" y="152" text-anchor="middle" dominant-baseline="middle" font-family="Virgil, Segoe Print, Comic Sans MS, sans-serif" font-size="18" fill="#111827"><tspan x="110" dy="0">Customer</tspan></text>
<rect x="40" y="300" width="140" height="64" rx="8" fill="#fef3c7" stroke="#1f2937" stroke-width="2"/><text x="110" y="332" text-anchor="middle" dominant-baseline="middle" font-family="Virgil, Segoe Print, Comic Sans MS, sans-serif" font-size="18" fill="#111827"><tspan x="110" dy="0">Staff / Admin</tspan></text>
<rect x="260" y="200" width="170" height="80" rx="8" fill="#dbeafe" stroke="#1f2937" stroke-width="2"/><text x="345" y="229.2" text-anchor="middle" dominant-baseline="middle" font-family="Virgil, Segoe Print, Comic Sans MS, sans-serif" font-size="18" fill="#111827"><tspan x="345" dy="0">React frontend</tspan><tspan x="345" dy="21.599999999999998">Vite + Nginx</tspan></text>
<rect x="520" y="190" width="180" height="90" rx="8" fill="#dcfce7" stroke="#1f2937" stroke-width="2"/><text x="610" y="224.2" text-anchor="middle" dominant-baseline="middle" font-family="Virgil, Segoe Print, Comic Sans MS, sans-serif" font-size="18" fill="#111827"><tspan x="610" dy="0">Order service</tspan><tspan x="610" dy="21.599999999999998">Go / Gin / GORM</tspan></text>
<rect x="510" y="40" width="170" height="70" rx="8" fill="#ede9fe" stroke="#1f2937" stroke-width="2"/><text x="595" y="64.2" text-anchor="middle" dominant-baseline="middle" font-family="Virgil, Segoe Print, Comic Sans MS, sans-serif" font-size="18" fill="#111827"><tspan x="595" dy="0">Basic login</tspan><tspan x="595" dy="21.599999999999998">JWT claims</tspan></text>
<path d="M 760 72 C 760 56, 920 56, 920 72 L 920 126 C 920 142, 760 142, 760 126 Z M 760 72 C 760 88, 920 88, 920 72" fill="#f3f4f6" stroke="#1f2937" stroke-width="2"/><text x="840" y="88.2" text-anchor="middle" dominant-baseline="middle" font-family="Virgil, Segoe Print, Comic Sans MS, sans-serif" font-size="18" fill="#111827"><tspan x="840" dy="0">PostgreSQL</tspan><tspan x="840" dy="21.599999999999998">runtime DB</tspan></text>
<path d="M 760 242 C 760 226, 920 226, 920 242 L 920 296 C 920 312, 760 312, 760 296 Z M 760 242 C 760 258, 920 258, 920 242" fill="#ffedd5" stroke="#1f2937" stroke-width="2"/><text x="840" y="258.2" text-anchor="middle" dominant-baseline="middle" font-family="Virgil, Segoe Print, Comic Sans MS, sans-serif" font-size="18" fill="#111827"><tspan x="840" dy="0">RabbitMQ</tspan><tspan x="840" dy="21.599999999999998">coffee.orders</tspan></text>
<rect x="520" y="390" width="180" height="80" rx="8" fill="#dcfce7" stroke="#1f2937" stroke-width="2"/><text x="610" y="419.2" text-anchor="middle" dominant-baseline="middle" font-family="Virgil, Segoe Print, Comic Sans MS, sans-serif" font-size="18" fill="#111827"><tspan x="610" dy="0">Notification</tspan><tspan x="610" dy="21.599999999999998">service</tspan></text>
<rect x="760" y="390" width="160" height="78" rx="8" fill="#fee2e2" stroke="#1f2937" stroke-width="2"/><text x="840" y="418.2" text-anchor="middle" dominant-baseline="middle" font-family="Virgil, Segoe Print, Comic Sans MS, sans-serif" font-size="18" fill="#111827"><tspan x="840" dy="0">MailHog</tspan><tspan x="840" dy="21.599999999999998">SMTP capture</tspan></text>
</svg>
