<svg xmlns="http://www.w3.org/2000/svg" width="1100" height="620" viewBox="0 0 1100 620" role="img">
  <defs>
    <marker id="arrow" markerWidth="10" markerHeight="10" refX="8" refY="3" orient="auto" markerUnits="strokeWidth">
      <path d="M0,0 L0,6 L9,3 z" fill="#1f2937"/>
    </marker>
  </defs>
  <rect width="100%" height="100%" fill="#fffdf7"/>
  <line x1="185" y1="198.91489361702128" x2="255" y2="228.70212765957447" stroke="#1f2937" stroke-width="2" marker-end="url(#arrow)"/><rect x="197.7" y="198.8085106382979" width="44.6" height="24" rx="4" fill="#ffffff" opacity="0.92"/><text x="220" y="212.8085106382979" text-anchor="middle" dominant-baseline="middle" font-family="Virgil, Segoe Print, Comic Sans MS, sans-serif" font-size="13" fill="#111827"><tspan x="220" dy="0">uses</tspan></text>
<line x1="185" y1="331.6808510638298" x2="255" y2="303.3829787234042" stroke="#1f2937" stroke-width="2" marker-end="url(#arrow)"/><rect x="197.7" y="302.531914893617" width="44.6" height="24" rx="4" fill="#ffffff" opacity="0.92"/><text x="220" y="316.531914893617" text-anchor="middle" dominant-baseline="middle" font-family="Virgil, Segoe Print, Comic Sans MS, sans-serif" font-size="13" fill="#111827"><tspan x="220" dy="0">uses</tspan></text>
<line x1="419.51612903225805" y1="225" x2="545.483870967742" y2="154" stroke="#1f2937" stroke-width="2" marker-end="url(#arrow)"/><rect x="417.3" y="174.5" width="130.4" height="24" rx="4" fill="#ffffff" opacity="0.92"/><text x="482.5" y="188.5" text-anchor="middle" dominant-baseline="middle" font-family="Virgil, Segoe Print, Comic Sans MS, sans-serif" font-size="13" fill="#111827"><tspan x="482.5" dy="0">POST /auth/login</tspan></text>
<line x1="435" y1="275.1818181818182" x2="520" y2="282.90909090909093" stroke="#1f2937" stroke-width="2" marker-end="url(#arrow)"/><rect x="390.85" y="264.04545454545456" width="173.3" height="24" rx="4" fill="#ffffff" opacity="0.92"/><text x="477.5" y="278.04545454545456" text-anchor="middle" dominant-baseline="middle" font-family="Virgil, Segoe Print, Comic Sans MS, sans-serif" font-size="13" fill="#111827"><tspan x="477.5" dy="0">HTTP JSON + Bearer JWT</tspan></text>
<line x1="720" y1="139.79661016949152" x2="820" y2="167.59322033898306" stroke="#1f2937" stroke-width="2" marker-end="url(#arrow)"/><rect x="711.95" y="138.6949152542373" width="116.10000000000001" height="24" rx="4" fill="#ffffff" opacity="0.92"/><text x="770" y="152.6949152542373" text-anchor="middle" dominant-baseline="middle" font-family="Virgil, Segoe Print, Comic Sans MS, sans-serif" font-size="13" fill="#111827"><tspan x="770" dy="0">users + outbox</tspan></text>
<line x1="720" y1="258.77966101694915" x2="820" y2="225.5593220338983" stroke="#1f2937" stroke-width="2" marker-end="url(#arrow)"/><rect x="669.05" y="227.16949152542372" width="201.9" height="24" rx="4" fill="#ffffff" opacity="0.92"/><text x="770" y="241.16949152542372" text-anchor="middle" dominant-baseline="middle" font-family="Virgil, Segoe Print, Comic Sans MS, sans-serif" font-size="13" fill="#111827"><tspan x="770" dy="0">products + orders + outbox</tspan></text>
<line x1="666.1363636363636" y1="154" x2="859.469696969697" y2="330" stroke="#1f2937" stroke-width="2" marker-end="url(#arrow)"/><rect x="715.4780303030302" y="227" width="94.65" height="24" rx="4" fill="#ffffff" opacity="0.92"/><text x="762.8030303030303" y="241" text-anchor="middle" dominant-baseline="middle" font-family="Virgil, Segoe Print, Comic Sans MS, sans-serif" font-size="13" fill="#111827"><tspan x="762.8030303030303" dy="0">coffee.auth</tspan></text>
<line x1="720" y1="320.9655172413793" x2="800" y2="344.13793103448273" stroke="#1f2937" stroke-width="2" marker-end="url(#arrow)"/><rect x="705.525" y="317.55172413793105" width="108.95" height="24" rx="4" fill="#ffffff" opacity="0.92"/><text x="760" y="331.55172413793105" text-anchor="middle" dominant-baseline="middle" font-family="Virgil, Segoe Print, Comic Sans MS, sans-serif" font-size="13" fill="#111827"><tspan x="760" dy="0">coffee.orders</tspan></text>
<line x1="805.6153846153846" y1="422" x2="708.0384615384615" y2="465" stroke="#1f2937" stroke-width="2" marker-end="url(#arrow)"/><rect x="702.3519230769231" y="428.5" width="108.95" height="24" rx="4" fill="#ffffff" opacity="0.92"/><text x="756.8269230769231" y="442.5" text-anchor="middle" dominant-baseline="middle" font-family="Virgil, Segoe Print, Comic Sans MS, sans-serif" font-size="13" fill="#111827"><tspan x="756.8269230769231" dy="0">deliver facts</tspan></text>
<line x1="710" y1="507.5833333333333" x2="820" y2="509.4166666666667" stroke="#1f2937" stroke-width="2" marker-end="url(#arrow)"/><rect x="742.7" y="493.5" width="44.6" height="24" rx="4" fill="#ffffff" opacity="0.92"/><text x="765" y="507.5" text-anchor="middle" dominant-baseline="middle" font-family="Virgil, Segoe Print, Comic Sans MS, sans-serif" font-size="13" fill="#111827"><tspan x="765" dy="0">SMTP</tspan></text>
<rect x="35" y="135" width="150" height="64" rx="8" fill="#fef3c7" stroke="#1f2937" stroke-width="2"/><text x="110" y="167" text-anchor="middle" dominant-baseline="middle" font-family="Virgil, Segoe Print, Comic Sans MS, sans-serif" font-size="18" fill="#111827"><tspan x="110" dy="0">Customer</tspan></text>
<rect x="35" y="330" width="150" height="64" rx="8" fill="#fef3c7" stroke="#1f2937" stroke-width="2"/><text x="110" y="362" text-anchor="middle" dominant-baseline="middle" font-family="Virgil, Segoe Print, Comic Sans MS, sans-serif" font-size="18" fill="#111827"><tspan x="110" dy="0">Barista / Admin</tspan></text>
<rect x="255" y="225" width="180" height="84" rx="8" fill="#dbeafe" stroke="#1f2937" stroke-width="2"/><text x="345" y="256.2" text-anchor="middle" dominant-baseline="middle" font-family="Virgil, Segoe Print, Comic Sans MS, sans-serif" font-size="18" fill="#111827"><tspan x="345" dy="0">React frontend</tspan><tspan x="345" dy="21.599999999999998">Vite + Nginx</tspan></text>
<rect x="520" y="70" width="200" height="84" rx="8" fill="#ede9fe" stroke="#1f2937" stroke-width="2"/><text x="620" y="101.2" text-anchor="middle" dominant-baseline="middle" font-family="Virgil, Segoe Print, Comic Sans MS, sans-serif" font-size="18" fill="#111827"><tspan x="620" dy="0">Auth service</tspan><tspan x="620" dy="21.599999999999998">email/password + JWT</tspan></text>
<rect x="520" y="250" width="200" height="84" rx="8" fill="#dcfce7" stroke="#1f2937" stroke-width="2"/><text x="620" y="281.2" text-anchor="middle" dominant-baseline="middle" font-family="Virgil, Segoe Print, Comic Sans MS, sans-serif" font-size="18" fill="#111827"><tspan x="620" dy="0">Order service</tspan><tspan x="620" dy="21.599999999999998">products + orders</tspan></text>
<path d="M 820 162 C 820 146, 1010 146, 1010 162 L 1010 226 C 1010 242, 820 242, 820 226 Z M 820 162 C 820 178, 1010 178, 1010 162" fill="#f3f4f6" stroke="#1f2937" stroke-width="2"/><text x="915" y="183.2" text-anchor="middle" dominant-baseline="middle" font-family="Virgil, Segoe Print, Comic Sans MS, sans-serif" font-size="18" fill="#111827"><tspan x="915" dy="0">PostgreSQL</tspan><tspan x="915" dy="21.599999999999998">shared runtime DB</tspan></text>
<path d="M 800 342 C 800 326, 1020 326, 1020 342 L 1020 410 C 1020 426, 800 426, 800 410 Z M 800 342 C 800 358, 1020 358, 1020 342" fill="#ffedd5" stroke="#1f2937" stroke-width="2"/><text x="910" y="366.4" text-anchor="middle" dominant-baseline="middle" font-family="Virgil, Segoe Print, Comic Sans MS, sans-serif" font-size="16" fill="#111827"><tspan x="910" dy="0">RabbitMQ</tspan><tspan x="910" dy="19.2">coffee.auth + coffee.orders</tspan></text>
<rect x="520" y="465" width="190" height="82" rx="8" fill="#dcfce7" stroke="#1f2937" stroke-width="2"/><text x="615" y="495.2" text-anchor="middle" dominant-baseline="middle" font-family="Virgil, Segoe Print, Comic Sans MS, sans-serif" font-size="18" fill="#111827"><tspan x="615" dy="0">Notification</tspan><tspan x="615" dy="21.599999999999998">service</tspan></text>
<rect x="820" y="470" width="190" height="82" rx="8" fill="#fee2e2" stroke="#1f2937" stroke-width="2"/><text x="915" y="500.2" text-anchor="middle" dominant-baseline="middle" font-family="Virgil, Segoe Print, Comic Sans MS, sans-serif" font-size="18" fill="#111827"><tspan x="915" dy="0">MailHog</tspan><tspan x="915" dy="21.599999999999998">SMTP capture</tspan></text>
</svg>
